<svg width="70" height="50" viewBox="0 0 70 50" fill="none" xmlns="http://www.w3.org/2000/svg">
<g clip-path="url(#clip0)">
<path d="M4.21094 25.9219L1.72864 25.6249C1.57746 26.8887 2.39986 28.0643 3.63885 28.3555L4.21094 25.9219ZM6.4707 7.03125V4.53125C5.20485 4.53125 4.13876 5.47741 3.9884 6.73431L6.4707 7.03125ZM28.0781 7.03125H30.5781C30.5781 5.65054 29.4588 4.53125 28.0781 4.53125V7.03125ZM28.0781 13.6836V16.1836C29.4588 16.1836 30.5781 15.0643 30.5781 13.6836H28.0781ZM13.4277 13.6836V11.1836C12.1568 11.1836 11.0881 12.1372 10.9439 13.4L13.4277 13.6836ZM12.5898 21.0215L10.106 20.7379C9.99864 21.6779 10.4312 22.598 11.2235 23.1151C12.0159 23.6322 13.0323 23.6577 13.8495 23.1809L12.5898 21.0215ZM14.9766 20.082L14.3222 17.6692L14.3117 17.672L14.9766 20.082ZM26.3516 22.9512L24.4926 24.6228C24.4971 24.6278 24.5017 24.6329 24.5063 24.6379L26.3516 22.9512ZM27.7227 38.541L25.5345 37.3318L25.5309 37.3385L27.7227 38.541ZM9.97461 43.0859L8.90197 45.3441C8.9071 45.3466 8.91224 45.349 8.9174 45.3514L9.97461 43.0859ZM5.20117 39.1504L3.14044 40.5658L3.1472 40.5756L5.20117 39.1504ZM3.5 33.4883V30.9883C2.12715 30.9883 1.01115 32.0953 1.00008 33.4681L3.5 33.4883ZM12.082 33.4883L14.5772 33.3323C14.4948 32.0147 13.4022 30.9883 12.082 30.9883V33.4883ZM11.0156 27.5215L10.4435 29.9551C11.4029 30.1807 12.4051 29.8216 13.003 29.0382L11.0156 27.5215ZM6.69324 26.2188L8.95301 7.32819L3.9884 6.73431L1.72864 25.6249L6.69324 26.2188ZM6.4707 9.53125H28.0781V4.53125H6.4707V9.53125ZM25.5781 7.03125V13.6836H30.5781V7.03125H25.5781ZM28.0781 11.1836H13.4277V16.1836H28.0781V11.1836ZM10.9439 13.4L10.106 20.7379L15.0737 21.3051L15.9116 13.9672L10.9439 13.4ZM13.8495 23.1809C14.2099 22.9707 14.7844 22.7284 15.6414 22.492L14.3117 17.672C13.2052 17.9773 12.1885 18.3613 11.3302 18.862L13.8495 23.1809ZM15.6309 22.4949C16.4356 22.2766 17.1888 22.1758 17.8965 22.1758V17.1758C16.7084 17.1758 15.5149 17.3458 14.3222 17.6692L15.6309 22.4949ZM17.8965 22.1758C21.0517 22.1758 23.1175 23.0936 24.4926 24.6228L28.2105 21.2796C25.6586 18.4416 22.0877 17.1758 17.8965 17.1758V22.1758ZM24.5063 24.6379C25.9402 26.2066 26.8223 28.5743 26.8223 32.0918H31.8223C31.8223 27.7552 30.7238 24.029 28.1968 21.2645L24.5063 24.6379ZM26.8223 32.0918C26.8223 34.0712 26.3812 35.7998 25.5346 37.3318L29.9108 39.7502C31.197 37.4228 31.8223 34.8519 31.8223 32.0918H26.8223ZM25.5309 37.3385C24.7122 38.8306 23.579 39.9562 22.0917 40.7591L24.4669 45.1589C26.8051 43.8967 28.6342 42.0769 29.9144 39.7436L25.5309 37.3385ZM22.0917 40.7591C20.6099 41.559 18.7744 42.0078 16.5 42.0078V47.0078C19.4391 47.0078 22.1232 46.4241 24.4669 45.1589L22.0917 40.7591ZM16.5 42.0078C14.5333 42.0078 12.7205 41.6085 11.0318 40.8205L8.9174 45.3514C11.2912 46.4592 13.8287 47.0078 16.5 47.0078V42.0078ZM11.0473 40.8277C9.36434 40.0284 8.12995 38.9859 7.25514 37.7252L3.1472 40.5756C4.57447 42.6325 6.52238 44.2138 8.90197 45.3441L11.0473 40.8277ZM7.26188 37.735C6.41073 36.4958 5.98698 35.1129 5.99992 33.5084L1.00008 33.4681C0.979166 36.0616 1.68953 38.4534 3.14046 40.5658L7.26188 37.735ZM3.5 35.9883H12.082V30.9883H3.5V35.9883ZM9.5869 33.6442C9.70042 35.4606 10.3053 37.1487 11.5903 38.4615L15.1636 34.9642C14.8913 34.686 14.6329 34.2243 14.5772 33.3323L9.5869 33.6442ZM11.5903 38.4615C12.9067 39.8066 14.6103 40.4062 16.4492 40.4062V35.4062C15.749 35.4062 15.4045 35.2104 15.1636 34.9642L11.5903 38.4615ZM16.4492 40.4062C18.6037 40.4062 20.5139 39.5505 21.759 37.7048C22.886 36.0342 23.2656 33.8432 23.2656 31.5078H18.2656C18.2656 33.438 17.9258 34.4463 17.614 34.9085C17.4204 35.1956 17.1723 35.4062 16.4492 35.4062V40.4062ZM23.2656 31.5078C23.2656 29.216 22.7603 27.0302 21.3103 25.4059C19.8121 23.7276 17.7082 23.0918 15.4844 23.0918V28.0918C16.7814 28.0918 17.3181 28.442 17.5803 28.7357C17.8907 29.0834 18.2656 29.8556 18.2656 31.5078H23.2656ZM15.4844 23.0918C12.9102 23.0918 10.5937 23.9535 9.02825 26.0048L13.003 29.0382C13.4011 28.5165 14.0637 28.0918 15.4844 28.0918V23.0918ZM11.5877 25.0878L4.78303 23.4882L3.63885 28.3555L10.4435 29.9551L11.5877 25.0878Z" fill="#3C80FF"/>
<path d="M58.7305 35.04C58.7305 33.5863 58.2113 32.4535 57.1729 31.6416C56.1533 30.8298 54.3503 29.9896 51.7637 29.1211C49.1771 28.2526 47.0625 27.4124 45.4199 26.6006C40.0768 23.9762 37.4053 20.3701 37.4053 15.7822C37.4053 13.4977 38.0661 11.487 39.3877 9.75C40.7282 7.99414 42.6162 6.63477 45.0518 5.67188C47.4873 4.6901 50.2249 4.19922 53.2646 4.19922C56.2288 4.19922 58.8815 4.72786 61.2227 5.78516C63.5827 6.84245 65.4141 8.35286 66.7168 10.3164C68.0195 12.2611 68.6709 14.4889 68.6709 17H58.7588C58.7588 15.3197 58.2396 14.0169 57.2012 13.0918C56.1816 12.1667 54.7939 11.7041 53.0381 11.7041C51.2633 11.7041 49.8568 12.1006 48.8184 12.8936C47.7988 13.6676 47.2891 14.6589 47.2891 15.8672C47.2891 16.9245 47.8555 17.8874 48.9883 18.7559C50.1211 19.6055 52.113 20.4928 54.9639 21.418C57.8148 22.3242 60.1559 23.306 61.9873 24.3633C66.443 26.931 68.6709 30.471 68.6709 34.9834C68.6709 38.5895 67.3115 41.4215 64.5928 43.4795C61.874 45.5374 58.1452 46.5664 53.4062 46.5664C50.0645 46.5664 47.0342 45.9717 44.3154 44.7822C41.6156 43.5739 39.5765 41.9313 38.1982 39.8545C36.8389 37.7588 36.1592 35.3516 36.1592 32.6328H46.1279C46.1279 34.8418 46.6943 36.4749 47.8271 37.5322C48.9788 38.5706 50.8385 39.0898 53.4062 39.0898C55.0488 39.0898 56.3421 38.7406 57.2861 38.042C58.249 37.3245 58.7305 36.3239 58.7305 35.04Z" fill="#3C80FF"/>
<path d="M57.1729 31.6416L56.8614 32.0328L56.8649 32.0355L57.1729 31.6416ZM45.4199 26.6006L45.6415 26.1523L45.6404 26.1518L45.4199 26.6006ZM39.3877 9.75L38.9903 9.44659L38.9898 9.44724L39.3877 9.75ZM45.0518 5.67188L45.2356 6.13687L45.2387 6.13562L45.0518 5.67188ZM61.2227 5.78516L61.0169 6.24084L61.0182 6.24146L61.2227 5.78516ZM66.7168 10.3164L66.3002 10.5928L66.3014 10.5947L66.7168 10.3164ZM68.6709 17V17.5C68.947 17.5 69.1709 17.2761 69.1709 17H68.6709ZM58.7588 17H58.2588C58.2588 17.2761 58.4826 17.5 58.7588 17.5V17ZM57.2012 13.0918L56.8652 13.4621L56.8686 13.4651L57.2012 13.0918ZM48.8184 12.8936L49.1207 13.2918L49.1218 13.2909L48.8184 12.8936ZM48.9883 18.7559L48.684 19.1527L48.6883 19.1559L48.9883 18.7559ZM54.9639 21.418L54.8095 21.8936L54.8124 21.8945L54.9639 21.418ZM61.9873 24.3633L61.7373 24.7963L61.7377 24.7965L61.9873 24.3633ZM44.3154 44.7822L44.1112 45.2386L44.115 45.2403L44.3154 44.7822ZM38.1982 39.8545L37.7787 40.1266L37.7816 40.131L38.1982 39.8545ZM36.1592 32.6328V32.1328C35.883 32.1328 35.6592 32.3567 35.6592 32.6328H36.1592ZM46.1279 32.6328H46.6279C46.6279 32.3567 46.4041 32.1328 46.1279 32.1328V32.6328ZM47.8271 37.5322L47.4859 37.8978L47.4923 37.9036L47.8271 37.5322ZM57.2861 38.042L57.5836 38.4439L57.5849 38.4429L57.2861 38.042ZM59.2305 35.04C59.2305 33.4505 58.654 32.1649 57.4808 31.2477L56.8649 32.0355C57.7685 32.742 58.2305 33.722 58.2305 35.04H59.2305ZM57.4843 31.2505C56.3921 30.3808 54.5177 29.5184 51.9228 28.6471L51.6045 29.5951C54.1828 30.4608 55.9145 31.2787 56.8614 32.0327L57.4843 31.2505ZM51.9228 28.6471C49.3483 27.7827 47.2567 26.9507 45.6415 26.1523L45.1984 27.0488C46.8683 27.8742 49.0058 28.7225 51.6045 29.5951L51.9228 28.6471ZM45.6404 26.1518C40.408 23.5819 37.9053 20.1204 37.9053 15.7822H36.9053C36.9053 20.6199 39.7456 24.3706 45.1995 27.0494L45.6404 26.1518ZM37.9053 15.7822C37.9053 13.6016 38.5335 11.6984 39.7856 10.0528L38.9898 9.44724C37.5987 11.2755 36.9053 13.3938 36.9053 15.7822H37.9053ZM39.7851 10.0534C41.0609 8.38225 42.8688 7.07257 45.2356 6.13686L44.8679 5.20689C42.3636 6.19696 40.3954 7.60603 38.9903 9.44659L39.7851 10.0534ZM45.2387 6.13562C47.6062 5.18126 50.279 4.69922 53.2646 4.69922V3.69922C50.1708 3.69922 47.3684 4.19895 44.8648 5.20813L45.2387 6.13562ZM53.2646 4.69922C56.1687 4.69922 58.7496 5.21692 61.0169 6.24084L61.4284 5.32947C59.0134 4.23881 56.2889 3.69922 53.2646 3.69922V4.69922ZM61.0182 6.24146C63.3006 7.26398 65.0548 8.71572 66.3002 10.5928L67.1334 10.04C65.7734 7.99001 63.8647 6.42092 61.4271 5.32885L61.0182 6.24146ZM66.3014 10.5947C67.5449 12.4509 68.1709 14.5805 68.1709 17H69.1709C69.1709 14.3974 68.4942 12.0712 67.1322 10.0381L66.3014 10.5947ZM68.6709 16.5H58.7588V17.5H68.6709V16.5ZM59.2588 17C59.2588 15.2094 58.7006 13.758 57.5338 12.7185L56.8686 13.4651C57.7785 14.2758 58.2588 15.43 58.2588 17H59.2588ZM57.5372 12.7215C56.4024 11.6918 54.8828 11.2041 53.0381 11.2041V12.2041C54.7051 12.2041 55.9609 12.6415 56.8652 13.4621L57.5372 12.7215ZM53.0381 11.2041C51.1925 11.2041 49.667 11.6164 48.5149 12.4962L49.1218 13.2909C50.0465 12.5848 51.3342 12.2041 53.0381 12.2041V11.2041ZM48.516 12.4953C47.3806 13.3574 46.7891 14.492 46.7891 15.8672H47.7891C47.7891 14.8257 48.2171 13.9779 49.1207 13.2918L48.516 12.4953ZM46.7891 15.8672C46.7891 17.1304 47.4743 18.2252 48.6841 19.1527L49.2925 18.3591C48.2366 17.5496 47.7891 16.7185 47.7891 15.8672H46.7891ZM48.6883 19.1559C49.8916 20.0583 51.9513 20.9661 54.8095 21.8936L55.1182 20.9424C52.2746 20.0196 50.3506 19.1526 49.2883 18.3559L48.6883 19.1559ZM54.8124 21.8945C57.6419 22.7939 59.947 23.7627 61.7373 24.7963L62.2373 23.9303C60.3649 22.8493 57.9877 21.8545 55.1153 20.9415L54.8124 21.8945ZM61.7377 24.7965C66.0645 27.2899 68.1709 30.6779 68.1709 34.9834H69.1709C69.1709 30.2642 66.8216 26.5721 62.237 23.9301L61.7377 24.7965ZM68.1709 34.9834C68.1709 38.4434 66.8767 41.1236 64.291 43.0808L64.8945 43.8782C67.7463 41.7195 69.1709 38.7356 69.1709 34.9834H68.1709ZM64.291 43.0808C61.6873 45.0517 58.0778 46.0664 53.4062 46.0664V47.0664C58.2125 47.0664 62.0608 46.0232 64.8945 43.8782L64.291 43.0808ZM53.4062 46.0664C50.1247 46.0664 47.1639 45.4827 44.5158 44.3241L44.115 45.2403C46.9045 46.4607 50.0042 47.0664 53.4062 47.0664V46.0664ZM44.5197 44.3258C41.8899 43.1489 39.9317 41.5623 38.6148 39.578L37.7816 40.131C39.2213 42.3003 41.3413 43.9989 44.1112 45.2386L44.5197 44.3258ZM38.6177 39.5824C37.3155 37.5749 36.6592 35.2639 36.6592 32.6328H35.6592C35.6592 35.4392 36.3622 37.9427 37.7788 40.1266L38.6177 39.5824ZM36.1592 33.1328H46.1279V32.1328H36.1592V33.1328ZM45.6279 32.6328C45.6279 34.9203 46.215 36.7115 47.486 37.8978L48.1683 37.1667C47.1737 36.2384 46.6279 34.7633 46.6279 32.6328H45.6279ZM47.4923 37.9036C48.7798 39.0644 50.7906 39.5898 53.4062 39.5898V38.5898C50.8864 38.5898 49.1779 38.0769 48.162 37.1609L47.4923 37.9036ZM53.4062 39.5898C55.1143 39.5898 56.5251 39.2271 57.5836 38.4439L56.9887 37.6401C56.1591 38.254 54.9834 38.5898 53.4062 38.5898V39.5898ZM57.5849 38.4429C58.6843 37.6238 59.2305 36.4691 59.2305 35.04H58.2305C58.2305 36.1787 57.8138 37.0253 56.9874 37.6411L57.5849 38.4429Z" fill="#3C80FF"/>
</g>
<defs>
<clipPath id="clip0">
<rect width="70" height="50" fill="white"/>
</clipPath>
</defs>
</svg>
