<svg width="65" height="55" viewBox="0 0 65 55" fill="none" xmlns="http://www.w3.org/2000/svg">
<path d="M49.5 21.5634V9.00004C49.5 6.2425 47.2576 4 44.4999 4H6.99992C4.24238 4 2 6.24238 2 9.00004V34C2 36.7575 4.24238 39 7.00004 39H35.033C36.6709 44.7625 41.9695 49 48.25 49C50.667 49 53.0437 48.364 55.1263 47.1592C55.7232 46.8137 55.9283 46.0496 55.5815 45.4514C55.2361 44.8533 54.4707 44.647 53.8737 44.9962C52.1721 45.9801 50.2275 46.5 48.2499 46.5C42.0462 46.5 36.9999 41.4536 36.9999 35.25C36.9999 29.0465 42.0464 24 48.2499 24C54.4535 24 59.4999 29.0465 59.4999 35.25V36.5001C59.4999 37.8782 58.3781 39 57 39C55.6218 39 54.5 37.8782 54.5 36.5001V31.5C54.5 30.8091 53.9409 30.25 53.25 30.25C52.9138 30.25 52.6116 30.3861 52.3872 30.6016C51.2824 29.6171 49.8426 29 48.2499 29C44.8039 29 42 31.8039 42 35.2499C42 38.6959 44.8039 41.5 48.25 41.5C50.1129 41.5 51.7692 40.6643 52.9153 39.367C53.8208 40.6533 55.3106 41.5 57.0001 41.5C59.7576 41.5 62 39.2576 62 36.5V35.2499C62 28.0901 56.4973 22.1978 49.5 21.5634ZM7.00004 6.49996H44.5C44.5521 6.49996 44.5957 6.52656 44.647 6.52973L26.7779 21.1973C26.1419 21.5977 25.2202 21.5146 24.8064 21.2608L6.85461 6.52949C6.90535 6.52645 6.94848 6.49996 7.00004 6.49996ZM47 21.5634C40.0026 22.1978 34.5 28.0901 34.5 35.25C34.5 35.6719 34.5259 36.0877 34.5632 36.5001H7.00004C5.62191 36.5001 4.50008 35.3782 4.50008 34.0001V9.00004C4.50008 8.64602 4.57824 8.31168 4.7116 8.00629L23.3307 23.275C24.0582 23.7498 24.8945 24.0002 25.7502 24.0002C26.5729 24.0002 27.3773 23.7682 28.0854 23.3288C28.1561 23.2909 28.2233 23.2458 28.2868 23.1933L46.7884 8.00605C46.9218 8.31168 47.0001 8.64602 47.0001 9.00016V21.5634H47ZM48.25 39C46.1821 39 44.5 37.3179 44.5 35.25C44.5 33.1821 46.1821 31.5 48.25 31.5C50.3179 31.5 52 33.1821 52 35.25C52 37.3179 50.3179 39 48.25 39Z" fill="#444444"/>
<rect x="35" y="21" width="30" height="30" fill="white"/>
<path d="M48.0001 48C41.6053 48 36.2104 43.8299 34.5428 38.1592L34.0644 35.699C34.0264 35.2932 34 34.884 34 34.4689C34 27.4229 39.6027 21.6244 46.7273 21H49.2727C56.3973 21.6244 62 27.4229 62 34.4687V35.6989C62 38.4127 59.7169 40.6194 56.9092 40.6194C55.189 40.6194 53.6721 39.7862 52.7501 38.5203C51.5832 39.797 49.8967 40.6194 48.0001 40.6194C44.4913 40.6194 41.6364 37.8599 41.6364 34.4687C41.6364 31.0776 44.4913 28.3183 47.9999 28.3183C49.6216 28.3183 51.0875 28.9255 52.2125 29.8944C52.441 29.6823 52.7486 29.5484 53.0909 29.5484C53.7944 29.5484 54.3636 30.0986 54.3636 30.7785V35.699C54.3636 37.0552 55.5059 38.1592 56.9091 38.1592C58.3122 38.1592 59.4545 37.0552 59.4545 35.699V34.4689C59.4545 28.364 54.3163 23.3979 47.9999 23.3979C41.6836 23.3979 36.5454 28.364 36.5454 34.4689C36.5454 40.5737 41.6835 45.5398 47.9999 45.5398C50.0134 45.5398 51.9934 45.0281 53.726 44.0599C54.3338 43.7162 55.1131 43.9193 55.4648 44.5079C55.8179 45.0965 55.6091 45.8485 55.0013 46.1885C52.8809 47.3741 50.461 48 48.0001 48Z" fill="#3C80FF"/>
<circle cx="48" cy="34.5" r="4" fill="white"/>
</svg>
