<svg width="173" height="45" viewBox="0 0 173 45" fill="none" xmlns="http://www.w3.org/2000/svg">
<path fill-rule="evenodd" clip-rule="evenodd" d="M88.875 38.75C91.0151 38.75 92.75 37.0151 92.75 34.875C92.75 32.7349 91.0151 31 88.875 31C86.7349 31 85 32.7349 85 34.875C85 37.0151 86.7349 38.75 88.875 38.75ZM88.875 45C94.4669 45 99 40.4669 99 34.875C99 29.2831 94.4669 24.75 88.875 24.75C83.2831 24.75 78.75 29.2831 78.75 34.875C78.75 40.4669 83.2831 45 88.875 45Z" fill="white"/>
<path fill-rule="evenodd" clip-rule="evenodd" d="M153.737 14C155.877 14 157.612 12.2651 157.612 10.125C157.612 7.9849 155.877 6.25 153.737 6.25C151.597 6.25 149.862 7.9849 149.862 10.125C149.862 12.2651 151.597 14 153.737 14ZM153.737 20.25C159.329 20.25 163.862 15.7169 163.862 10.125C163.862 4.53312 159.329 0 153.737 0C148.145 0 143.612 4.53312 143.612 10.125C143.612 15.7169 148.145 20.25 153.737 20.25Z" fill="white"/>
<path fill-rule="evenodd" clip-rule="evenodd" d="M81.8712 10.332C83.5949 10.332 84.9923 11.7294 84.9923 13.4532V13.578C84.9923 15.3018 86.3897 16.6992 88.1135 16.6992H103.931C105.655 16.6992 107.052 18.0966 107.052 19.8203C107.052 21.5441 105.655 22.9415 103.931 22.9415H88.1135C82.9422 22.9415 78.75 18.7493 78.75 13.578V13.4532C78.75 11.7294 80.1474 10.332 81.8712 10.332Z" fill="white"/>
<path fill-rule="evenodd" clip-rule="evenodd" d="M165.917 23.0867L165.917 2.78826C165.917 1.24834 167.302 6.45326e-07 169.011 -1.32438e-07C170.719 -9.10202e-07 172.105 1.24834 172.105 2.78825L172.105 23.0867C172.105 24.6267 170.719 25.875 169.011 25.875C167.302 25.875 165.917 24.6267 165.917 23.0867Z" fill="white"/>
<path fill-rule="evenodd" clip-rule="evenodd" d="M132.711 44.9736C130.987 44.9736 129.589 43.5763 129.589 41.8525L129.589 31.5821C129.589 29.8583 128.192 28.461 126.468 28.461L113.934 28.461C112.21 28.461 110.813 27.0636 110.813 25.3398C110.813 23.616 112.21 22.2187 113.934 22.2187L126.468 22.2187C131.639 22.2187 135.832 26.4108 135.832 31.582L135.832 41.8525C135.832 43.5762 134.434 44.9736 132.711 44.9736Z" fill="white"/>
<path fill-rule="evenodd" clip-rule="evenodd" d="M124.594 30.375C126.302 30.375 127.687 31.7239 127.687 33.388L127.687 41.987C127.687 43.6511 126.302 45 124.594 45C122.885 45 121.5 43.6511 121.5 41.987L121.5 33.388C121.5 31.7239 122.885 30.375 124.594 30.375Z" fill="white"/>
<path fill-rule="evenodd" clip-rule="evenodd" d="M78.75 3.12116C78.75 1.3974 80.1474 1.28746e-05 81.8712 1.28746e-05L89.7188 0C94.89 0 99.0822 4.19216 99.0822 9.36345V11.7355C99.0822 13.4593 97.6848 14.8567 95.9611 14.8567C94.2373 14.8567 92.8399 13.4593 92.8399 11.7355V9.36345C92.8399 7.63969 91.4425 6.2423 89.7188 6.2423L81.8712 6.24232C80.1474 6.24232 78.75 4.84493 78.75 3.12116Z" fill="white"/>
<path fill-rule="evenodd" clip-rule="evenodd" d="M172.105 41.8788C172.105 43.6026 170.707 45 168.983 45L161.404 45C156.232 45 152.04 40.8078 152.04 35.6365L152.04 29.5191C152.04 27.7953 153.437 26.3979 155.161 26.3979C156.885 26.3979 158.282 27.7953 158.282 29.5191L158.282 35.6365C158.282 37.3603 159.68 38.7577 161.404 38.7577L168.983 38.7577C170.707 38.7577 172.105 40.1551 172.105 41.8788Z" fill="white"/>
<path d="M136.126 10.125C136.126 15.7169 131.593 20.25 126.001 20.25C120.409 20.25 115.876 15.7169 115.876 10.125C115.876 4.53312 120.409 0 126.001 0C131.593 0 136.126 4.53312 136.126 10.125Z" fill="white"/>
<path fill-rule="evenodd" clip-rule="evenodd" d="M27.5531 20.25C32.57 20.25 36.7347 16.6011 37.5381 11.8125H47.3642C48.1676 16.6011 52.3323 20.25 57.3492 20.25C62.9411 20.25 67.4742 15.7169 67.4742 10.125C67.4742 4.53312 62.9411 0 57.3492 0C52.3323 0 48.1676 3.64885 47.3642 8.43749H37.5381C36.7347 3.64885 32.57 0 27.5531 0C21.9612 0 17.4281 4.53312 17.4281 10.125C17.4281 12.8158 18.4777 15.2614 20.1898 17.0747L14.2996 25.6345C13.0268 25.0577 11.6134 24.7365 10.125 24.7365C4.53312 24.7365 0 29.2696 0 34.8615C0 40.4534 4.53312 44.9865 10.125 44.9865C15.7169 44.9865 20.25 40.4534 20.25 34.8615C20.25 31.9722 19.0397 29.3655 17.0985 27.5208L22.8848 19.1119C24.2817 19.839 25.8694 20.25 27.5531 20.25ZM57.3492 14.625C59.8345 14.625 61.8492 12.6103 61.8492 10.125C61.8492 7.63972 59.8345 5.625 57.3492 5.625C54.8639 5.625 52.8492 7.63972 52.8492 10.125C52.8492 12.6103 54.8639 14.625 57.3492 14.625ZM14.625 34.8615C14.625 37.3468 12.6103 39.3615 10.125 39.3615C7.63972 39.3615 5.625 37.3468 5.625 34.8615C5.625 32.3762 7.63972 30.3615 10.125 30.3615C12.6103 30.3615 14.625 32.3762 14.625 34.8615Z" fill="white"/>
<path fill-rule="evenodd" clip-rule="evenodd" d="M27.5531 20.25C32.57 20.25 36.7347 16.6011 37.5381 11.8125H47.3642C48.1676 16.6011 52.3323 20.25 57.3492 20.25C62.9411 20.25 67.4742 15.7169 67.4742 10.125C67.4742 4.53312 62.9411 0 57.3492 0C52.3323 0 48.1676 3.64885 47.3642 8.43749H37.5381C36.7347 3.64885 32.57 0 27.5531 0C21.9612 0 17.4281 4.53312 17.4281 10.125C17.4281 12.8158 18.4777 15.2614 20.1898 17.0747L14.2996 25.6345C13.0268 25.0577 11.6134 24.7365 10.125 24.7365C4.53312 24.7365 0 29.2696 0 34.8615C0 40.4534 4.53312 44.9865 10.125 44.9865C15.7169 44.9865 20.25 40.4534 20.25 34.8615C20.25 31.9722 19.0397 29.3655 17.0985 27.5208L22.8848 19.1119C24.2817 19.839 25.8694 20.25 27.5531 20.25ZM57.3492 14.625C59.8345 14.625 61.8492 12.6103 61.8492 10.125C61.8492 7.63972 59.8345 5.625 57.3492 5.625C54.8639 5.625 52.8492 7.63972 52.8492 10.125C52.8492 12.6103 54.8639 14.625 57.3492 14.625ZM14.625 34.8615C14.625 37.3468 12.6103 39.3615 10.125 39.3615C7.63972 39.3615 5.625 37.3468 5.625 34.8615C5.625 32.3762 7.63972 30.3615 10.125 30.3615C12.6103 30.3615 14.625 32.3762 14.625 34.8615Z" fill="url(#paint0_linear)"/>
<defs>
<linearGradient id="paint0_linear" x1="-1.40548" y1="60.4042" x2="65.7798" y2="62.5422" gradientUnits="userSpaceOnUse">
<stop stop-color="#FCAF45"/>
<stop offset="0.244792" stop-color="#E1306C"/>
<stop offset="0.510417" stop-color="#C13584"/>
<stop offset="0.760417" stop-color="#833AB4"/>
<stop offset="1" stop-color="#405DE6"/>
</linearGradient>
</defs>
</svg>
