<svg width="283" height="183" viewBox="0 0 283 183" fill="none" xmlns="http://www.w3.org/2000/svg">
<rect width="283" height="183" fill="black"/>
<g clip-path="url(#clip0)">
<path fill-rule="evenodd" clip-rule="evenodd" d="M144.399 108.333C146.648 108.333 148.472 106.483 148.472 104.2C148.472 101.917 146.648 100.067 144.399 100.067C142.15 100.067 140.327 101.917 140.327 104.2C140.327 106.483 142.15 108.333 144.399 108.333ZM144.399 115C150.276 115 155.04 110.164 155.04 104.2C155.04 98.2353 150.276 93.3999 144.399 93.3999C138.523 93.3999 133.759 98.2353 133.759 104.2C133.759 110.164 138.523 115 144.399 115Z" fill="white"/>
<path fill-rule="evenodd" clip-rule="evenodd" d="M211.698 81.9333C213.947 81.9333 215.77 80.0828 215.77 77.8C215.77 75.5172 213.947 73.6667 211.698 73.6667C209.449 73.6667 207.626 75.5172 207.626 77.8C207.626 80.0828 209.449 81.9333 211.698 81.9333ZM211.698 88.6C217.574 88.6 222.338 83.7647 222.338 77.8C222.338 71.8353 217.574 67 211.698 67C205.822 67 201.058 71.8353 201.058 77.8C201.058 83.7647 205.822 88.6 211.698 88.6Z" fill="white"/>
<path fill-rule="evenodd" clip-rule="evenodd" d="M137.039 78.021C138.85 78.021 140.319 79.5115 140.319 81.3502V81.4834C140.319 83.3221 141.787 84.8126 143.599 84.8126H160.222C162.033 84.8126 163.502 86.3032 163.502 88.1419C163.502 89.9805 162.033 91.4711 160.222 91.4711H143.599C138.164 91.4711 133.759 86.9995 133.759 81.4834V81.3502C133.759 79.5115 135.227 78.021 137.039 78.021Z" fill="white"/>
<path fill-rule="evenodd" clip-rule="evenodd" d="M224.498 91.6259V69.9741C224.498 68.3316 225.953 67 227.749 67C229.544 67 231 68.3316 231 69.9741V91.6259C231 93.2684 229.544 94.6 227.749 94.6C225.953 94.6 224.498 93.2684 224.498 91.6259Z" fill="white"/>
<path fill-rule="evenodd" clip-rule="evenodd" d="M190.466 114.972C188.654 114.972 187.185 113.482 187.185 111.643V100.688C187.185 98.8491 185.717 97.3587 183.905 97.3587H170.733C168.922 97.3587 167.453 95.8681 167.453 94.0294C167.453 92.1907 168.922 90.7002 170.733 90.7002H183.905C189.34 90.7002 193.746 95.1718 193.746 100.688V111.643C193.746 113.482 192.277 114.972 190.466 114.972Z" fill="white"/>
<path fill-rule="evenodd" clip-rule="evenodd" d="M181.936 93.3999C183.731 93.3999 185.187 94.8388 185.187 96.6137V111.786C185.187 113.561 183.731 115 181.936 115C180.14 115 178.685 113.561 178.685 111.786V96.6137C178.685 94.8388 180.14 93.3999 181.936 93.3999Z" fill="white"/>
<path fill-rule="evenodd" clip-rule="evenodd" d="M133.759 70.3293C133.759 68.4906 135.227 67 137.039 67L145.286 67C150.72 67 155.126 71.4717 155.126 76.9877V79.5179C155.126 81.3566 153.658 82.8471 151.846 82.8471C150.034 82.8471 148.566 81.3566 148.566 79.5179V76.9877C148.566 75.149 147.097 73.6585 145.286 73.6585H137.039C135.227 73.6585 133.759 72.1679 133.759 70.3293Z" fill="white"/>
<path fill-rule="evenodd" clip-rule="evenodd" d="M231 111.671C231 113.51 229.531 115 227.72 115H219.754C214.319 115 209.914 110.528 209.914 105.012V98.487C209.914 96.6483 211.382 95.1577 213.194 95.1577C215.006 95.1577 216.474 96.6483 216.474 98.487V105.012C216.474 106.851 217.943 108.341 219.754 108.341H227.72C229.531 108.341 231 109.832 231 111.671Z" fill="white"/>
<path d="M194.054 77.8C194.054 83.7647 189.29 88.6 183.414 88.6C177.537 88.6 172.773 83.7647 172.773 77.8C172.773 71.8353 177.537 67 183.414 67C189.29 67 194.054 71.8353 194.054 77.8Z" fill="white"/>
<path fill-rule="evenodd" clip-rule="evenodd" d="M79.9556 88.6C85.2278 88.6 89.6045 84.7079 90.449 79.6H100.775C101.62 84.7079 105.996 88.6 111.268 88.6C117.145 88.6 121.909 83.7647 121.909 77.8C121.909 71.8353 117.145 67 111.268 67C105.996 67 101.62 70.8921 100.775 76H90.449C89.6045 70.8921 85.2278 67 79.9556 67C74.0791 67 69.3152 71.8353 69.3152 77.8C69.3152 80.6701 70.4182 83.2788 72.2175 85.213L66.0275 94.3434C64.6899 93.7282 63.2045 93.3856 61.6404 93.3856C55.7639 93.3856 51 98.221 51 104.186C51 110.15 55.7639 114.986 61.6404 114.986C67.5169 114.986 72.2808 110.15 72.2808 104.186C72.2808 101.104 71.0089 98.3233 68.9688 96.3555L75.0497 87.3861C76.5177 88.1616 78.1862 88.6 79.9556 88.6ZM111.268 82C113.554 82 115.406 80.1196 115.406 77.8C115.406 75.4804 113.554 73.6 111.268 73.6C108.983 73.6 107.13 75.4804 107.13 77.8C107.13 80.1196 108.983 82 111.268 82ZM65.7783 104.186C65.7783 106.505 63.9257 108.386 61.6404 108.386C59.3551 108.386 57.5025 106.505 57.5025 104.186C57.5025 101.866 59.3551 99.9856 61.6404 99.9856C63.9257 99.9856 65.7783 101.866 65.7783 104.186Z" fill="#C4C4C4"/>
<path fill-rule="evenodd" clip-rule="evenodd" d="M79.9556 88.6C85.2278 88.6 89.6045 84.7079 90.449 79.6H100.775C101.62 84.7079 105.996 88.6 111.268 88.6C117.145 88.6 121.909 83.7647 121.909 77.8C121.909 71.8353 117.145 67 111.268 67C105.996 67 101.62 70.8921 100.775 76H90.449C89.6045 70.8921 85.2278 67 79.9556 67C74.0791 67 69.3152 71.8353 69.3152 77.8C69.3152 80.6701 70.4182 83.2788 72.2175 85.213L66.0275 94.3434C64.6899 93.7282 63.2045 93.3856 61.6404 93.3856C55.7639 93.3856 51 98.221 51 104.186C51 110.15 55.7639 114.986 61.6404 114.986C67.5169 114.986 72.2808 110.15 72.2808 104.186C72.2808 101.104 71.0089 98.3233 68.9688 96.3555L75.0497 87.3861C76.5177 88.1616 78.1862 88.6 79.9556 88.6ZM111.268 82C113.554 82 115.406 80.1196 115.406 77.8C115.406 75.4804 113.554 73.6 111.268 73.6C108.983 73.6 107.13 75.4804 107.13 77.8C107.13 80.1196 108.983 82 111.268 82ZM65.7783 104.186C65.7783 106.505 63.9257 108.386 61.6404 108.386C59.3551 108.386 57.5025 106.505 57.5025 104.186C57.5025 101.866 59.3551 99.9856 61.6404 99.9856C63.9257 99.9856 65.7783 101.866 65.7783 104.186Z" fill="url(#paint0_linear)"/>
</g>
<defs>
<linearGradient id="paint0_linear" x1="49.523" y1="131.431" x2="120.13" y2="133.645" gradientUnits="userSpaceOnUse">
<stop stop-color="#FCAF45"/>
<stop offset="0.244792" stop-color="#E1306C"/>
<stop offset="0.510417" stop-color="#C13584"/>
<stop offset="0.760417" stop-color="#833AB4"/>
<stop offset="1" stop-color="#405DE6"/>
</linearGradient>
<clipPath id="clip0">
<rect x="51" y="67" width="180" height="48" fill="white"/>
</clipPath>
</defs>
</svg>
