<svg width="279" height="83" viewBox="0 0 279 83" fill="none" xmlns="http://www.w3.org/2000/svg">
<rect width="279" height="83" fill="#5935DF"/>
<path d="M19.21 53.292C15.952 53.292 14.17 55.434 14.17 59.106V60.708C14.17 64.47 15.826 66.666 19.408 66.666C21.136 66.666 22.612 66.324 23.728 65.514V59.592H19.444V60.708H22.504V64.812C21.784 65.244 20.506 65.46 19.462 65.46C16.816 65.46 15.448 63.894 15.448 60.708V59.052C15.448 56.334 16.708 54.48 19.21 54.48C20.578 54.48 21.586 54.75 22.756 55.578L23.404 54.588C22.324 53.76 21.028 53.292 19.21 53.292ZM29.9245 56.586C27.3325 56.586 25.8025 58.188 25.8025 60.996V62.202C25.8025 64.992 27.3325 66.612 29.9245 66.612C32.5165 66.612 34.0465 64.992 34.0465 62.202V60.996C34.0465 58.206 32.5165 56.586 29.9245 56.586ZM29.9245 65.532C28.1425 65.532 27.0445 64.416 27.0445 62.13V61.068C27.0445 58.782 28.1425 57.666 29.9245 57.666C31.7065 57.666 32.8045 58.782 32.8045 61.068V62.13C32.8045 64.416 31.7065 65.532 29.9245 65.532ZM40.659 56.586C39.129 56.586 38.139 57.378 37.689 58.116V56.766H36.483V66.468H37.707V60.168C37.707 59.034 38.841 57.702 40.479 57.702C42.405 57.702 42.927 58.854 42.927 60.24V66.468H44.151V59.934C44.151 57.918 42.873 56.586 40.659 56.586ZM53.2595 66.342C53.2595 68.376 52.3055 69.33 50.5235 69.33C49.4255 69.33 48.7415 69.15 47.8415 68.52L47.2835 69.474C48.0935 70.104 49.1555 70.482 50.5235 70.482C52.9355 70.482 54.4835 69.06 54.4835 66.306V56.766H53.2775V57.954C52.7735 57.234 51.7835 56.586 50.3615 56.586C48.1475 56.586 46.5095 58.098 46.5095 60.744V62.274C46.5095 64.92 48.1475 66.432 50.3795 66.432C51.4955 66.432 52.7015 65.982 53.2415 65.01H53.2595V66.342ZM47.7335 60.924C47.7335 58.872 48.7955 57.666 50.4335 57.666C52.0895 57.666 53.2595 58.944 53.2595 60.078V62.814C53.2595 64.524 51.9995 65.352 50.4335 65.352C48.8135 65.352 47.7335 64.164 47.7335 62.094V60.924ZM66.4194 53.49H65.0154L61.4154 60.006L57.7254 53.49H56.3034L60.7674 61.158V66.468H62.0274V61.158L66.4194 53.49ZM70.4512 66.612C71.9812 66.612 72.9892 65.856 73.4392 65.118V66.468H74.6452V56.766H73.4212V63.066C73.4212 64.2 72.2692 65.496 70.6312 65.496C68.7052 65.496 68.2912 64.344 68.2912 62.958V56.766H67.0672V63.264C67.0672 65.28 68.2372 66.612 70.4512 66.612ZM77.5995 66.468H78.8595V53.49H77.5995V66.468ZM85.9754 56.586C84.4454 56.586 83.4554 57.378 83.0054 58.116V56.766H81.7994V66.468H83.0234V60.168C83.0234 59.034 84.1574 57.702 85.7954 57.702C87.7214 57.702 88.2434 58.854 88.2434 60.24V66.468H89.4674V59.934C89.4674 57.918 88.1894 56.586 85.9754 56.586ZM96.8299 66.468H98.0899V61.338H101.222C103.868 61.338 105.38 59.682 105.38 57.576V57.198C105.38 55.074 103.976 53.49 101.222 53.49H96.8299V66.468ZM101.114 54.624C103.148 54.624 104.102 55.686 104.102 57.216V57.54C104.102 59.16 103.148 60.204 100.916 60.204H98.0899V54.624H101.114ZM110.846 66.612C112.376 66.612 113.384 65.856 113.834 65.118V66.468H115.04V56.766H113.816V63.066C113.816 64.2 112.664 65.496 111.026 65.496C109.1 65.496 108.686 64.344 108.686 62.958V56.766H107.462V63.264C107.462 65.28 108.632 66.612 110.846 66.612ZM123.322 56.784C122.926 56.64 122.476 56.586 121.936 56.586C120.46 56.586 119.56 57.54 119.146 58.476V56.766H117.94V66.468H119.164V60.96C119.164 59.142 120.172 57.828 121.774 57.828C122.242 57.828 122.62 57.9 122.944 58.026L123.322 56.784ZM126.213 65.316C126.735 66 127.725 66.612 129.093 66.612C131.307 66.612 132.945 65.1 132.945 62.454V60.744C132.945 58.098 131.397 56.586 129.093 56.586C127.887 56.586 126.753 57.162 126.177 58.134V56.766H124.971V70.32H126.195V65.316H126.213ZM131.721 62.274C131.721 64.326 130.659 65.532 129.021 65.532C127.365 65.532 126.195 64.38 126.195 63.246V60.402C126.195 58.692 127.689 57.702 129.021 57.702C130.677 57.702 131.721 58.854 131.721 60.924V62.274ZM135.395 66.468H136.619V52.86H135.395V66.468ZM140.265 60.978V60.816C140.265 58.908 141.273 57.666 142.983 57.666C144.675 57.666 145.665 58.8 145.665 60.816V60.978H140.265ZM146.133 64.578C145.431 65.082 144.459 65.532 143.163 65.532C141.381 65.532 140.265 64.308 140.265 62.166V62.004H146.889V60.996C146.889 58.278 145.503 56.586 142.983 56.586C140.553 56.586 139.041 58.206 139.041 60.96V62.166C139.041 64.992 140.571 66.612 143.145 66.612C144.783 66.612 145.899 66.054 146.673 65.514L146.133 64.578ZM153.853 66.468H158.551C161.359 66.468 162.709 65.172 162.709 63.048V62.598C162.709 60.798 161.611 59.862 160.027 59.628C161.575 59.25 162.115 58.17 162.115 57.036V56.658C162.115 54.534 160.747 53.49 157.993 53.49H153.853V66.468ZM155.095 60.222H158.047C160.639 60.222 161.431 61.05 161.431 62.634V63.03C161.431 64.56 160.477 65.352 158.443 65.352H155.095V60.222ZM157.903 54.588C159.937 54.588 160.855 55.146 160.855 56.676V57C160.855 58.62 159.829 59.16 158.029 59.16H155.095V54.588H157.903ZM164.874 66.468H166.098V52.86H164.874V66.468ZM172.281 66.612C173.811 66.612 174.819 65.856 175.269 65.118V66.468H176.475V56.766H175.251V63.066C175.251 64.2 174.099 65.496 172.461 65.496C170.535 65.496 170.121 64.344 170.121 62.958V56.766H168.897V63.264C168.897 65.28 170.067 66.612 172.281 66.612ZM180.15 60.978V60.816C180.15 58.908 181.158 57.666 182.868 57.666C184.56 57.666 185.55 58.8 185.55 60.816V60.978H180.15ZM186.018 64.578C185.316 65.082 184.344 65.532 183.048 65.532C181.266 65.532 180.15 64.308 180.15 62.166V62.004H186.774V60.996C186.774 58.278 185.388 56.586 182.868 56.586C180.438 56.586 178.926 58.206 178.926 60.96V62.166C178.926 64.992 180.456 66.612 183.03 66.612C184.668 66.612 185.784 66.054 186.558 65.514L186.018 64.578Z" fill="white"/>
</svg>
