<svg width="279" height="83" viewBox="0 0 279 83" fill="none" xmlns="http://www.w3.org/2000/svg">
<rect x="0.5" y="0.5" width="278" height="82" fill="#9955EE" stroke="#E4E4E4"/>
<path d="M20.21 53.292C16.952 53.292 15.17 55.434 15.17 59.106V60.708C15.17 64.47 16.826 66.666 20.408 66.666C22.136 66.666 23.612 66.324 24.728 65.514V59.592H20.444V60.708H23.504V64.812C22.784 65.244 21.506 65.46 20.462 65.46C17.816 65.46 16.448 63.894 16.448 60.708V59.052C16.448 56.334 17.708 54.48 20.21 54.48C21.578 54.48 22.586 54.75 23.756 55.578L24.404 54.588C23.324 53.76 22.028 53.292 20.21 53.292ZM30.9245 56.586C28.3325 56.586 26.8025 58.188 26.8025 60.996V62.202C26.8025 64.992 28.3325 66.612 30.9245 66.612C33.5165 66.612 35.0465 64.992 35.0465 62.202V60.996C35.0465 58.206 33.5165 56.586 30.9245 56.586ZM30.9245 65.532C29.1425 65.532 28.0445 64.416 28.0445 62.13V61.068C28.0445 58.782 29.1425 57.666 30.9245 57.666C32.7065 57.666 33.8045 58.782 33.8045 61.068V62.13C33.8045 64.416 32.7065 65.532 30.9245 65.532ZM41.659 56.586C40.129 56.586 39.139 57.378 38.689 58.116V56.766H37.483V66.468H38.707V60.168C38.707 59.034 39.841 57.702 41.479 57.702C43.405 57.702 43.927 58.854 43.927 60.24V66.468H45.151V59.934C45.151 57.918 43.873 56.586 41.659 56.586ZM54.2595 66.342C54.2595 68.376 53.3055 69.33 51.5235 69.33C50.4255 69.33 49.7415 69.15 48.8415 68.52L48.2835 69.474C49.0935 70.104 50.1555 70.482 51.5235 70.482C53.9355 70.482 55.4835 69.06 55.4835 66.306V56.766H54.2775V57.954C53.7735 57.234 52.7835 56.586 51.3615 56.586C49.1475 56.586 47.5095 58.098 47.5095 60.744V62.274C47.5095 64.92 49.1475 66.432 51.3795 66.432C52.4955 66.432 53.7015 65.982 54.2415 65.01H54.2595V66.342ZM48.7335 60.924C48.7335 58.872 49.7955 57.666 51.4335 57.666C53.0895 57.666 54.2595 58.944 54.2595 60.078V62.814C54.2595 64.524 52.9995 65.352 51.4335 65.352C49.8135 65.352 48.7335 64.164 48.7335 62.094V60.924ZM67.4194 53.49H66.0154L62.4154 60.006L58.7254 53.49H57.3034L61.7674 61.158V66.468H63.0274V61.158L67.4194 53.49ZM71.4512 66.612C72.9812 66.612 73.9892 65.856 74.4392 65.118V66.468H75.6452V56.766H74.4212V63.066C74.4212 64.2 73.2692 65.496 71.6312 65.496C69.7052 65.496 69.2912 64.344 69.2912 62.958V56.766H68.0672V63.264C68.0672 65.28 69.2372 66.612 71.4512 66.612ZM78.5995 66.468H79.8595V53.49H78.5995V66.468ZM86.9754 56.586C85.4454 56.586 84.4554 57.378 84.0054 58.116V56.766H82.7994V66.468H84.0234V60.168C84.0234 59.034 85.1574 57.702 86.7954 57.702C88.7214 57.702 89.2434 58.854 89.2434 60.24V66.468H90.4674V59.934C90.4674 57.918 89.1894 56.586 86.9754 56.586ZM97.8299 66.468H102.528C105.336 66.468 106.686 65.172 106.686 63.048V62.598C106.686 60.798 105.588 59.862 104.004 59.628C105.552 59.25 106.092 58.17 106.092 57.036V56.658C106.092 54.534 104.724 53.49 101.97 53.49H97.8299V66.468ZM99.0719 60.222H102.024C104.616 60.222 105.408 61.05 105.408 62.634V63.03C105.408 64.56 104.454 65.352 102.42 65.352H99.0719V60.222ZM101.88 54.588C103.914 54.588 104.832 55.146 104.832 56.676V57C104.832 58.62 103.806 59.16 102.006 59.16H99.0719V54.588H101.88ZM114.232 56.784C113.836 56.64 113.386 56.586 112.846 56.586C111.37 56.586 110.47 57.54 110.056 58.476V56.766H108.85V66.468H110.074V60.96C110.074 59.142 111.082 57.828 112.684 57.828C113.152 57.828 113.53 57.9 113.854 58.026L114.232 56.784ZM115.935 66.468H117.159V56.766H115.935V66.468ZM115.881 54.912H117.213V53.544H115.881V54.912ZM126.4 66.342C126.4 68.376 125.446 69.33 123.664 69.33C122.566 69.33 121.882 69.15 120.982 68.52L120.424 69.474C121.234 70.104 122.296 70.482 123.664 70.482C126.076 70.482 127.624 69.06 127.624 66.306V56.766H126.418V57.954C125.914 57.234 124.924 56.586 123.502 56.586C121.288 56.586 119.65 58.098 119.65 60.744V62.274C119.65 64.92 121.288 66.432 123.52 66.432C124.636 66.432 125.842 65.982 126.382 65.01H126.4V66.342ZM120.874 60.924C120.874 58.872 121.936 57.666 123.574 57.666C125.23 57.666 126.4 58.944 126.4 60.078V62.814C126.4 64.524 125.14 65.352 123.574 65.352C121.954 65.352 120.874 64.164 120.874 62.094V60.924ZM134.7 56.586C133.17 56.586 132.198 57.378 131.748 58.116V52.86H130.524V66.468H131.748V60.168C131.748 59.034 132.882 57.702 134.52 57.702C136.446 57.702 136.968 58.854 136.968 60.24V66.468H138.192V59.934C138.192 57.918 136.914 56.586 134.7 56.586ZM141.757 63.768C141.757 65.874 142.567 66.558 144.259 66.558C144.781 66.558 145.519 66.468 145.897 66.324L145.717 65.316C145.267 65.442 144.835 65.496 144.349 65.496C143.377 65.496 142.981 65.028 142.981 63.714V57.81H145.663V56.766H142.981V54.264H141.757V56.766H140.101V57.81H141.757V63.768ZM152.533 66.468H153.793V61.338H156.925C159.571 61.338 161.083 59.682 161.083 57.576V57.198C161.083 55.074 159.679 53.49 156.925 53.49H152.533V66.468ZM156.817 54.624C158.851 54.624 159.805 55.686 159.805 57.216V57.54C159.805 59.16 158.851 60.204 156.619 60.204H153.793V54.624H156.817ZM166.549 66.612C168.079 66.612 169.087 65.856 169.537 65.118V66.468H170.743V56.766H169.519V63.066C169.519 64.2 168.367 65.496 166.729 65.496C164.803 65.496 164.389 64.344 164.389 62.958V56.766H163.165V63.264C163.165 65.28 164.335 66.612 166.549 66.612ZM179.025 56.784C178.629 56.64 178.179 56.586 177.639 56.586C176.163 56.586 175.263 57.54 174.849 58.476V56.766H173.643V66.468H174.867V60.96C174.867 59.142 175.875 57.828 177.477 57.828C177.945 57.828 178.323 57.9 178.647 58.026L179.025 56.784ZM181.916 65.316C182.438 66 183.428 66.612 184.796 66.612C187.01 66.612 188.648 65.1 188.648 62.454V60.744C188.648 58.098 187.1 56.586 184.796 56.586C183.59 56.586 182.456 57.162 181.88 58.134V56.766H180.674V70.32H181.898V65.316H181.916ZM187.424 62.274C187.424 64.326 186.362 65.532 184.724 65.532C183.068 65.532 181.898 64.38 181.898 63.246V60.402C181.898 58.692 183.392 57.702 184.724 57.702C186.38 57.702 187.424 58.854 187.424 60.924V62.274ZM191.098 66.468H192.322V52.86H191.098V66.468ZM195.968 60.978V60.816C195.968 58.908 196.976 57.666 198.686 57.666C200.378 57.666 201.368 58.8 201.368 60.816V60.978H195.968ZM201.836 64.578C201.134 65.082 200.162 65.532 198.866 65.532C197.084 65.532 195.968 64.308 195.968 62.166V62.004H202.592V60.996C202.592 58.278 201.206 56.586 198.686 56.586C196.256 56.586 194.744 58.206 194.744 60.96V62.166C194.744 64.992 196.274 66.612 198.848 66.612C200.486 66.612 201.602 66.054 202.376 65.514L201.836 64.578Z" fill="white"/>
</svg>
