<svg width="284" height="183" viewBox="0 0 284 183" fill="none" xmlns="http://www.w3.org/2000/svg">
<rect x="0.5" y="0.5" width="283" height="182" fill="white" stroke="#EAEAEA"/>
<g clip-path="url(#clip0)">
<path fill-rule="evenodd" clip-rule="evenodd" d="M145.399 108.333C147.648 108.333 149.472 106.483 149.472 104.2C149.472 101.917 147.648 100.067 145.399 100.067C143.15 100.067 141.327 101.917 141.327 104.2C141.327 106.483 143.15 108.333 145.399 108.333ZM145.399 115C151.276 115 156.04 110.164 156.04 104.2C156.04 98.2353 151.276 93.3999 145.399 93.3999C139.523 93.3999 134.759 98.2353 134.759 104.2C134.759 110.164 139.523 115 145.399 115Z" fill="#444444"/>
<path fill-rule="evenodd" clip-rule="evenodd" d="M212.698 81.9333C214.947 81.9333 216.77 80.0828 216.77 77.8C216.77 75.5172 214.947 73.6667 212.698 73.6667C210.449 73.6667 208.626 75.5172 208.626 77.8C208.626 80.0828 210.449 81.9333 212.698 81.9333ZM212.698 88.6C218.574 88.6 223.338 83.7647 223.338 77.8C223.338 71.8353 218.574 67 212.698 67C206.822 67 202.058 71.8353 202.058 77.8C202.058 83.7647 206.822 88.6 212.698 88.6Z" fill="#444444"/>
<path fill-rule="evenodd" clip-rule="evenodd" d="M138.039 78.021C139.85 78.021 141.319 79.5115 141.319 81.3502V81.4834C141.319 83.3221 142.787 84.8126 144.599 84.8126H161.222C163.033 84.8126 164.502 86.3032 164.502 88.1419C164.502 89.9805 163.033 91.4711 161.222 91.4711H144.599C139.164 91.4711 134.759 86.9995 134.759 81.4834V81.3502C134.759 79.5115 136.227 78.021 138.039 78.021Z" fill="#444444"/>
<path fill-rule="evenodd" clip-rule="evenodd" d="M225.498 91.6259V69.9741C225.498 68.3316 226.953 67 228.749 67C230.544 67 232 68.3316 232 69.9741V91.6259C232 93.2684 230.544 94.6 228.749 94.6C226.953 94.6 225.498 93.2684 225.498 91.6259Z" fill="#444444"/>
<path fill-rule="evenodd" clip-rule="evenodd" d="M191.466 114.972C189.654 114.972 188.185 113.482 188.185 111.643V100.688C188.185 98.8491 186.717 97.3587 184.905 97.3587H171.733C169.922 97.3587 168.453 95.8681 168.453 94.0294C168.453 92.1907 169.922 90.7002 171.733 90.7002H184.905C190.34 90.7002 194.746 95.1718 194.746 100.688V111.643C194.746 113.482 193.277 114.972 191.466 114.972Z" fill="#444444"/>
<path fill-rule="evenodd" clip-rule="evenodd" d="M182.936 93.3999C184.731 93.3999 186.187 94.8388 186.187 96.6137V111.786C186.187 113.561 184.731 115 182.936 115C181.14 115 179.685 113.561 179.685 111.786V96.6137C179.685 94.8388 181.14 93.3999 182.936 93.3999Z" fill="#444444"/>
<path fill-rule="evenodd" clip-rule="evenodd" d="M134.759 70.3293C134.759 68.4906 136.227 67 138.039 67L146.286 67C151.72 67 156.126 71.4717 156.126 76.9877V79.5179C156.126 81.3566 154.658 82.8471 152.846 82.8471C151.034 82.8471 149.566 81.3566 149.566 79.5179V76.9877C149.566 75.149 148.097 73.6585 146.286 73.6585H138.039C136.227 73.6585 134.759 72.1679 134.759 70.3293Z" fill="#444444"/>
<path fill-rule="evenodd" clip-rule="evenodd" d="M232 111.671C232 113.51 230.531 115 228.72 115H220.754C215.319 115 210.914 110.528 210.914 105.012V98.487C210.914 96.6483 212.382 95.1577 214.194 95.1577C216.006 95.1577 217.474 96.6483 217.474 98.487V105.012C217.474 106.851 218.943 108.341 220.754 108.341H228.72C230.531 108.341 232 109.832 232 111.671Z" fill="#444444"/>
<path d="M195.054 77.8C195.054 83.7647 190.29 88.6 184.414 88.6C178.537 88.6 173.773 83.7647 173.773 77.8C173.773 71.8353 178.537 67 184.414 67C190.29 67 195.054 71.8353 195.054 77.8Z" fill="#444444"/>
<path fill-rule="evenodd" clip-rule="evenodd" d="M80.9556 88.6C86.2278 88.6 90.6045 84.7079 91.449 79.6H101.775C102.62 84.7079 106.996 88.6 112.268 88.6C118.145 88.6 122.909 83.7647 122.909 77.8C122.909 71.8353 118.145 67 112.268 67C106.996 67 102.62 70.8921 101.775 76H91.449C90.6045 70.8921 86.2278 67 80.9556 67C75.0791 67 70.3152 71.8353 70.3152 77.8C70.3152 80.6701 71.4182 83.2788 73.2175 85.213L67.0275 94.3434C65.6899 93.7282 64.2045 93.3856 62.6404 93.3856C56.7639 93.3856 52 98.221 52 104.186C52 110.15 56.7639 114.986 62.6404 114.986C68.5169 114.986 73.2808 110.15 73.2808 104.186C73.2808 101.104 72.0089 98.3233 69.9688 96.3555L76.0497 87.3861C77.5177 88.1616 79.1862 88.6 80.9556 88.6ZM112.268 82C114.554 82 116.406 80.1196 116.406 77.8C116.406 75.4804 114.554 73.6 112.268 73.6C109.983 73.6 108.13 75.4804 108.13 77.8C108.13 80.1196 109.983 82 112.268 82ZM66.7783 104.186C66.7783 106.505 64.9257 108.386 62.6404 108.386C60.3551 108.386 58.5025 106.505 58.5025 104.186C58.5025 101.866 60.3551 99.9856 62.6404 99.9856C64.9257 99.9856 66.7783 101.866 66.7783 104.186Z" fill="#C4C4C4"/>
<path fill-rule="evenodd" clip-rule="evenodd" d="M80.9556 88.6C86.2278 88.6 90.6045 84.7079 91.449 79.6H101.775C102.62 84.7079 106.996 88.6 112.268 88.6C118.145 88.6 122.909 83.7647 122.909 77.8C122.909 71.8353 118.145 67 112.268 67C106.996 67 102.62 70.8921 101.775 76H91.449C90.6045 70.8921 86.2278 67 80.9556 67C75.0791 67 70.3152 71.8353 70.3152 77.8C70.3152 80.6701 71.4182 83.2788 73.2175 85.213L67.0275 94.3434C65.6899 93.7282 64.2045 93.3856 62.6404 93.3856C56.7639 93.3856 52 98.221 52 104.186C52 110.15 56.7639 114.986 62.6404 114.986C68.5169 114.986 73.2808 110.15 73.2808 104.186C73.2808 101.104 72.0089 98.3233 69.9688 96.3555L76.0497 87.3861C77.5177 88.1616 79.1862 88.6 80.9556 88.6ZM112.268 82C114.554 82 116.406 80.1196 116.406 77.8C116.406 75.4804 114.554 73.6 112.268 73.6C109.983 73.6 108.13 75.4804 108.13 77.8C108.13 80.1196 109.983 82 112.268 82ZM66.7783 104.186C66.7783 106.505 64.9257 108.386 62.6404 108.386C60.3551 108.386 58.5025 106.505 58.5025 104.186C58.5025 101.866 60.3551 99.9856 62.6404 99.9856C64.9257 99.9856 66.7783 101.866 66.7783 104.186Z" fill="white"/>
<path fill-rule="evenodd" clip-rule="evenodd" d="M80.9556 88.6C86.2278 88.6 90.6045 84.7079 91.449 79.6H101.775C102.62 84.7079 106.996 88.6 112.268 88.6C118.145 88.6 122.909 83.7647 122.909 77.8C122.909 71.8353 118.145 67 112.268 67C106.996 67 102.62 70.8921 101.775 76H91.449C90.6045 70.8921 86.2278 67 80.9556 67C75.0791 67 70.3152 71.8353 70.3152 77.8C70.3152 80.6701 71.4182 83.2788 73.2175 85.213L67.0275 94.3434C65.6899 93.7282 64.2045 93.3856 62.6404 93.3856C56.7639 93.3856 52 98.221 52 104.186C52 110.15 56.7639 114.986 62.6404 114.986C68.5169 114.986 73.2808 110.15 73.2808 104.186C73.2808 101.104 72.0089 98.3233 69.9688 96.3555L76.0497 87.3861C77.5177 88.1616 79.1862 88.6 80.9556 88.6ZM112.268 82C114.554 82 116.406 80.1196 116.406 77.8C116.406 75.4804 114.554 73.6 112.268 73.6C109.983 73.6 108.13 75.4804 108.13 77.8C108.13 80.1196 109.983 82 112.268 82ZM66.7783 104.186C66.7783 106.505 64.9257 108.386 62.6404 108.386C60.3551 108.386 58.5025 106.505 58.5025 104.186C58.5025 101.866 60.3551 99.9856 62.6404 99.9856C64.9257 99.9856 66.7783 101.866 66.7783 104.186Z" fill="url(#paint0_linear)"/>
</g>
<defs>
<linearGradient id="paint0_linear" x1="50.523" y1="131.431" x2="121.13" y2="133.645" gradientUnits="userSpaceOnUse">
<stop stop-color="#FCAF45"/>
<stop offset="0.244792" stop-color="#E1306C"/>
<stop offset="0.510417" stop-color="#C13584"/>
<stop offset="0.760417" stop-color="#833AB4"/>
<stop offset="1" stop-color="#405DE6"/>
</linearGradient>
<clipPath id="clip0">
<rect x="52" y="67" width="180" height="48" fill="white"/>
</clipPath>
</defs>
</svg>
