<svg width="279" height="83" viewBox="0 0 279 83" fill="none" xmlns="http://www.w3.org/2000/svg">
<rect width="279" height="83" fill="#3C80FF"/>
<rect width="279" height="83" fill="url(#paint0_linear)"/>
<path d="M21.21 52.292C22.122 52.292 22.914 52.406 23.586 52.634C24.258 52.85 24.864 53.168 25.404 53.588L24.756 54.578C24.168 54.158 23.598 53.87 23.046 53.714C22.506 53.558 21.894 53.48 21.21 53.48C20.586 53.48 20.04 53.594 19.572 53.822C19.104 54.038 18.708 54.35 18.384 54.758C18.072 55.154 17.838 55.634 17.682 56.198C17.526 56.75 17.448 57.368 17.448 58.052V59.708C17.448 62.876 18.786 64.46 21.462 64.46C21.726 64.46 21.996 64.448 22.272 64.424C22.56 64.4 22.836 64.364 23.1 64.316C23.376 64.256 23.634 64.184 23.874 64.1C24.114 64.016 24.324 63.92 24.504 63.812V59.708H21.444V58.592H25.728V64.514C25.164 64.922 24.516 65.216 23.784 65.396C23.064 65.576 22.272 65.666 21.408 65.666C19.62 65.666 18.3 65.144 17.448 64.1C16.596 63.056 16.17 61.592 16.17 59.708V58.106C16.17 56.258 16.596 54.83 17.448 53.822C18.312 52.802 19.566 52.292 21.21 52.292ZM31.9245 55.586C33.2325 55.586 34.2465 55.97 34.9665 56.738C35.6865 57.506 36.0465 58.592 36.0465 59.996V61.202C36.0465 62.606 35.6865 63.692 34.9665 64.46C34.2465 65.228 33.2325 65.612 31.9245 65.612C30.6165 65.612 29.6025 65.228 28.8825 64.46C28.1625 63.692 27.8025 62.606 27.8025 61.202V59.996C27.8025 58.58 28.1625 57.494 28.8825 56.738C29.6025 55.97 30.6165 55.586 31.9245 55.586ZM31.9245 64.532C32.8245 64.532 33.5265 64.256 34.0305 63.704C34.5465 63.14 34.8045 62.282 34.8045 61.13V60.068C34.8045 58.916 34.5465 58.064 34.0305 57.512C33.5265 56.948 32.8245 56.666 31.9245 56.666C31.0245 56.666 30.3165 56.948 29.8005 57.512C29.2965 58.064 29.0445 58.916 29.0445 60.068V61.13C29.0445 62.282 29.2965 63.14 29.8005 63.704C30.3165 64.256 31.0245 64.532 31.9245 64.532ZM42.659 55.586C43.775 55.586 44.633 55.892 45.233 56.504C45.845 57.104 46.151 57.914 46.151 58.934V65.468H44.927V59.24C44.927 58.892 44.891 58.568 44.819 58.268C44.747 57.956 44.615 57.686 44.423 57.458C44.243 57.218 43.991 57.032 43.667 56.9C43.355 56.768 42.959 56.702 42.479 56.702C42.071 56.702 41.693 56.78 41.345 56.936C41.009 57.08 40.721 57.272 40.481 57.512C40.241 57.752 40.049 58.016 39.905 58.304C39.773 58.592 39.707 58.88 39.707 59.168V65.468H38.483V55.766H39.689V57.116C39.797 56.936 39.941 56.756 40.121 56.576C40.301 56.384 40.517 56.216 40.769 56.072C41.021 55.928 41.303 55.814 41.615 55.73C41.927 55.634 42.275 55.586 42.659 55.586ZM55.2595 64.01H55.2415C54.9655 64.502 54.5575 64.862 54.0175 65.09C53.4895 65.318 52.9435 65.432 52.3795 65.432C51.8155 65.432 51.2995 65.336 50.8315 65.144C50.3635 64.964 49.9555 64.7 49.6075 64.352C49.2595 63.992 48.9895 63.554 48.7975 63.038C48.6055 62.522 48.5095 61.934 48.5095 61.274V59.744C48.5095 59.084 48.6055 58.496 48.7975 57.98C48.9895 57.464 49.2535 57.032 49.5895 56.684C49.9375 56.324 50.3455 56.054 50.8135 55.874C51.2935 55.682 51.8095 55.586 52.3615 55.586C53.0815 55.586 53.6815 55.724 54.1615 56C54.6535 56.276 55.0255 56.594 55.2775 56.954V55.766H56.4835V65.306C56.4835 66.686 56.1235 67.724 55.4035 68.42C54.6955 69.128 53.7355 69.482 52.5235 69.482C51.8395 69.482 51.2275 69.392 50.6875 69.212C50.1595 69.032 49.6915 68.786 49.2835 68.474L49.8415 67.52C50.0695 67.676 50.2855 67.802 50.4895 67.898C50.6935 68.006 50.8975 68.09 51.1015 68.15C51.3175 68.222 51.5395 68.27 51.7675 68.294C51.9955 68.318 52.2475 68.33 52.5235 68.33C53.4235 68.33 54.1015 68.084 54.5575 67.592C55.0255 67.112 55.2595 66.362 55.2595 65.342V64.01ZM49.7335 61.094C49.7335 62.138 49.9795 62.942 50.4715 63.506C50.9635 64.07 51.6175 64.352 52.4335 64.352C52.8295 64.352 53.1955 64.304 53.5315 64.208C53.8795 64.1 54.1795 63.944 54.4315 63.74C54.6835 63.524 54.8815 63.26 55.0255 62.948C55.1815 62.624 55.2595 62.246 55.2595 61.814V59.078C55.2595 58.79 55.1875 58.508 55.0435 58.232C54.9115 57.944 54.7195 57.686 54.4675 57.458C54.2155 57.218 53.9155 57.026 53.5675 56.882C53.2195 56.738 52.8415 56.666 52.4335 56.666C51.6055 56.666 50.9455 56.954 50.4535 57.53C49.9735 58.094 49.7335 58.892 49.7335 59.924V61.094ZM64.0274 60.158V65.468H62.7674V60.158L58.3034 52.49H59.7254L63.4154 59.006L67.0154 52.49H68.4194L64.0274 60.158ZM72.4512 65.612C71.3472 65.612 70.5072 65.306 69.9312 64.694C69.3552 64.082 69.0672 63.272 69.0672 62.264V55.766H70.2912V61.958C70.2912 62.306 70.3212 62.636 70.3812 62.948C70.4532 63.248 70.5732 63.518 70.7412 63.758C70.9092 63.986 71.1432 64.166 71.4432 64.298C71.7552 64.43 72.1512 64.496 72.6312 64.496C73.0392 64.496 73.4112 64.424 73.7472 64.28C74.0952 64.136 74.3892 63.95 74.6292 63.722C74.8812 63.482 75.0732 63.218 75.2052 62.93C75.3492 62.642 75.4212 62.354 75.4212 62.066V55.766H76.6452V65.468H75.4392V64.118C75.2112 64.49 74.8452 64.832 74.3412 65.144C73.8492 65.456 73.2192 65.612 72.4512 65.612ZM79.5995 52.49H80.8595V65.468H79.5995V52.49ZM87.9754 55.586C89.0914 55.586 89.9494 55.892 90.5494 56.504C91.1614 57.104 91.4674 57.914 91.4674 58.934V65.468H90.2434V59.24C90.2434 58.892 90.2074 58.568 90.1354 58.268C90.0634 57.956 89.9314 57.686 89.7394 57.458C89.5594 57.218 89.3074 57.032 88.9834 56.9C88.6714 56.768 88.2754 56.702 87.7954 56.702C87.3874 56.702 87.0094 56.78 86.6614 56.936C86.3254 57.08 86.0374 57.272 85.7974 57.512C85.5574 57.752 85.3654 58.016 85.2214 58.304C85.0894 58.592 85.0234 58.88 85.0234 59.168V65.468H83.7994V55.766H85.0054V57.116C85.1134 56.936 85.2574 56.756 85.4374 56.576C85.6174 56.384 85.8334 56.216 86.0854 56.072C86.3374 55.928 86.6194 55.814 86.9314 55.73C87.2434 55.634 87.5914 55.586 87.9754 55.586ZM103.546 52.292C104.458 52.292 105.25 52.406 105.922 52.634C106.594 52.85 107.2 53.168 107.74 53.588L107.092 54.578C106.504 54.158 105.934 53.87 105.382 53.714C104.842 53.558 104.23 53.48 103.546 53.48C102.922 53.48 102.376 53.594 101.908 53.822C101.44 54.038 101.044 54.35 100.72 54.758C100.408 55.154 100.174 55.634 100.018 56.198C99.8619 56.75 99.7839 57.368 99.7839 58.052V59.708C99.7839 62.876 101.122 64.46 103.798 64.46C104.062 64.46 104.332 64.448 104.608 64.424C104.896 64.4 105.172 64.364 105.436 64.316C105.712 64.256 105.97 64.184 106.21 64.1C106.45 64.016 106.66 63.92 106.84 63.812V59.708H103.78V58.592H108.064V64.514C107.5 64.922 106.852 65.216 106.12 65.396C105.4 65.576 104.608 65.666 103.744 65.666C101.956 65.666 100.636 65.144 99.7839 64.1C98.9319 63.056 98.5059 61.592 98.5059 59.708V58.106C98.5059 56.258 98.9319 54.83 99.7839 53.822C100.648 52.802 101.902 52.292 103.546 52.292ZM115.592 57.026C115.256 56.894 114.866 56.828 114.422 56.828C114.026 56.828 113.666 56.906 113.342 57.062C113.018 57.218 112.742 57.434 112.514 57.71C112.286 57.986 112.112 58.316 111.992 58.7C111.872 59.084 111.812 59.504 111.812 59.96V65.468H110.588V55.766H111.794V57.476C111.902 57.248 112.034 57.02 112.19 56.792C112.358 56.564 112.556 56.36 112.784 56.18C113.024 56 113.288 55.856 113.576 55.748C113.876 55.64 114.212 55.586 114.584 55.586C114.86 55.586 115.106 55.604 115.322 55.64C115.55 55.664 115.766 55.712 115.97 55.784L115.592 57.026ZM120.125 65.612C119.201 65.612 118.451 65.366 117.875 64.874C117.299 64.382 117.011 63.704 117.011 62.84V62.444C117.011 61.652 117.299 61.01 117.875 60.518C118.451 60.026 119.303 59.78 120.431 59.78H123.167V58.88C123.167 58.172 122.969 57.632 122.573 57.26C122.189 56.876 121.619 56.684 120.863 56.684C120.335 56.684 119.831 56.78 119.351 56.972C118.871 57.152 118.421 57.386 118.001 57.674L117.407 56.738C117.863 56.426 118.367 56.156 118.919 55.928C119.483 55.7 120.137 55.586 120.881 55.586C121.973 55.586 122.825 55.856 123.437 56.396C124.061 56.936 124.373 57.698 124.373 58.682V65.468H123.185V64.28H123.167C123.071 64.436 122.927 64.598 122.735 64.766C122.555 64.922 122.339 65.066 122.087 65.198C121.535 65.474 120.881 65.612 120.125 65.612ZM123.167 60.806H120.449C119.669 60.806 119.105 60.962 118.757 61.274C118.409 61.586 118.235 61.994 118.235 62.498V62.786C118.235 63.098 118.295 63.368 118.415 63.596C118.535 63.812 118.691 63.992 118.883 64.136C119.087 64.28 119.309 64.388 119.549 64.46C119.801 64.52 120.053 64.55 120.305 64.55C120.689 64.55 121.037 64.502 121.349 64.406C121.661 64.31 121.961 64.172 122.249 63.992C122.513 63.824 122.729 63.62 122.897 63.38C123.077 63.128 123.167 62.816 123.167 62.444V60.806ZM133.43 64.19H133.412C133.136 64.682 132.728 65.042 132.188 65.27C131.648 65.498 131.096 65.612 130.532 65.612C129.968 65.612 129.452 65.516 128.984 65.324C128.516 65.144 128.108 64.88 127.76 64.532C127.412 64.172 127.142 63.734 126.95 63.218C126.758 62.702 126.662 62.114 126.662 61.454V59.744C126.662 59.084 126.758 58.496 126.95 57.98C127.142 57.464 127.406 57.032 127.742 56.684C128.09 56.324 128.498 56.054 128.966 55.874C129.446 55.682 129.962 55.586 130.514 55.586C131.234 55.586 131.834 55.724 132.314 56C132.794 56.276 133.16 56.594 133.412 56.954V51.86H134.636V65.468H133.43V64.19ZM127.886 61.274C127.886 62.318 128.132 63.122 128.624 63.686C129.116 64.25 129.77 64.532 130.586 64.532C130.982 64.532 131.348 64.484 131.684 64.388C132.032 64.28 132.332 64.124 132.584 63.92C132.836 63.704 133.034 63.44 133.178 63.128C133.334 62.804 133.412 62.426 133.412 61.994V59.078C133.412 58.79 133.34 58.508 133.196 58.232C133.064 57.944 132.872 57.686 132.62 57.458C132.368 57.218 132.068 57.026 131.72 56.882C131.372 56.738 130.994 56.666 130.586 56.666C129.758 56.666 129.098 56.954 128.606 57.53C128.126 58.094 127.886 58.892 127.886 59.924V61.274ZM137.572 55.766H138.796V65.468H137.572V55.766ZM137.518 52.544H138.85V53.912H137.518V52.544ZM147.911 59.978V59.816C147.911 58.796 147.677 58.016 147.209 57.476C146.741 56.936 146.081 56.666 145.229 56.666C144.365 56.666 143.693 56.954 143.213 57.53C142.745 58.094 142.511 58.856 142.511 59.816V59.978H147.911ZM148.919 64.514C148.535 64.79 148.055 65.042 147.479 65.27C146.903 65.498 146.207 65.612 145.391 65.612C144.095 65.612 143.087 65.228 142.367 64.46C141.647 63.68 141.287 62.582 141.287 61.166V59.96C141.287 58.58 141.635 57.506 142.331 56.738C143.039 55.97 144.005 55.586 145.229 55.586C146.501 55.586 147.467 55.982 148.127 56.774C148.799 57.554 149.135 58.628 149.135 59.996V61.004H142.511V61.166C142.511 62.246 142.769 63.08 143.285 63.668C143.801 64.244 144.509 64.532 145.409 64.532C146.057 64.532 146.627 64.436 147.119 64.244C147.611 64.052 148.031 63.83 148.379 63.578L148.919 64.514ZM155.721 55.586C156.837 55.586 157.695 55.892 158.295 56.504C158.907 57.104 159.213 57.914 159.213 58.934V65.468H157.989V59.24C157.989 58.892 157.953 58.568 157.881 58.268C157.809 57.956 157.677 57.686 157.485 57.458C157.305 57.218 157.053 57.032 156.729 56.9C156.417 56.768 156.021 56.702 155.541 56.702C155.133 56.702 154.755 56.78 154.407 56.936C154.071 57.08 153.783 57.272 153.543 57.512C153.303 57.752 153.111 58.016 152.967 58.304C152.835 58.592 152.769 58.88 152.769 59.168V65.468H151.545V55.766H152.751V57.116C152.859 56.936 153.003 56.756 153.183 56.576C153.363 56.384 153.579 56.216 153.831 56.072C154.083 55.928 154.365 55.814 154.677 55.73C154.989 55.634 155.337 55.586 155.721 55.586ZM162.778 56.81H161.122V55.766H162.778V53.264H164.002V55.766H166.684V56.81H164.002V62.714C164.002 63.374 164.104 63.836 164.308 64.1C164.524 64.364 164.878 64.496 165.37 64.496C165.85 64.496 166.306 64.436 166.738 64.316L166.918 65.324C166.726 65.396 166.468 65.45 166.144 65.486C165.832 65.534 165.544 65.558 165.28 65.558C164.86 65.558 164.488 65.51 164.164 65.414C163.852 65.318 163.594 65.162 163.39 64.946C163.186 64.73 163.03 64.448 162.922 64.1C162.826 63.74 162.778 63.296 162.778 62.768V56.81Z" fill="white"/>
<defs>
<linearGradient id="paint0_linear" x1="268.5" y1="-14.5" x2="38.5" y2="119" gradientUnits="userSpaceOnUse">
<stop stop-color="#405DE6"/>
<stop offset="0.369792" stop-color="#833AB4"/>
<stop offset="0.5625" stop-color="#C13584"/>
<stop offset="0.786458" stop-color="#E1306C"/>
<stop offset="1" stop-color="#FCAF45"/>
</linearGradient>
</defs>
</svg>
