<svg width="284" height="183" viewBox="0 0 284 183" fill="none" xmlns="http://www.w3.org/2000/svg">
<rect width="284" height="183" fill="#3C80FF"/>
<g clip-path="url(#clip0)">
<path d="M102.405 92.7234C101.789 94.8685 99.8594 96.4348 97.5636 96.4348C95.2681 96.4348 93.3384 94.8685 92.7229 92.7234H84.9209V82.0065C85.3866 82.2874 85.919 82.4576 86.5012 82.4576C88.198 82.4576 89.5788 81.0446 89.5788 79.3081C89.5788 77.5716 88.198 76.1585 86.5012 76.1585C85.9273 76.1585 85.3866 76.3203 84.9209 76.6097V72.2344H65V113.008H84.9209V112.991H104.842V92.732H102.405V92.7234Z" fill="white"/>
<path d="M108.037 69H88.124V74.4904C90.0788 75.1799 91.4844 77.0782 91.4844 79.3084C91.4844 81.5471 90.0788 83.4368 88.124 84.1263V89.2592H95.7182C95.0943 89.8125 94.6951 90.6212 94.6951 91.532C94.6951 93.1918 96.0093 94.5284 97.623 94.5284C99.2448 94.5284 100.551 93.1834 100.551 91.532C100.551 90.6212 100.151 89.804 99.5276 89.2592H108.037V69Z" fill="white"/>
<path d="M140.939 96.2563H140.956L141.039 95.8901L140.939 96.2563Z" fill="#39393C"/>
<path d="M121.943 80.5767H119.298V104.956H132.407V102.521H121.943V80.5767Z" fill="white"/>
<path d="M142.561 80.5767L136.023 104.956H138.635L140.357 98.6823H140.365L140.956 96.2564H140.939L141.039 95.8902L141.089 95.6859L141.039 95.8902L144.557 82.9005H146.346L149.955 96.2564H149.939L150.546 98.6823L152.268 104.956H154.88L148.342 80.5767H142.561Z" fill="white"/>
<path d="M165.651 91.9917L159.738 80.5767H156.743L164.346 94.7071V104.956H166.999V94.7071L174.568 80.5767H171.574L165.651 91.9917Z" fill="white"/>
<path d="M188.235 102.555H186.305L180.832 80.5767H178.079L184.309 104.956H190.231L196.461 80.5767H193.708L188.235 102.555Z" fill="white"/>
<path d="M217.919 83.326C216.53 81.2575 214.085 80.2275 210.566 80.2275C207.056 80.2275 204.611 81.266 203.239 83.343C201.858 85.42 201.176 88.6036 201.176 92.8852C201.176 97.1755 201.849 100.308 203.205 102.309C204.561 104.309 207.023 105.305 210.591 105.305C214.16 105.305 216.622 104.334 217.977 102.385C219.333 100.436 220.007 97.2861 220.007 92.9449C219.999 88.5951 219.308 85.3945 217.919 83.326ZM215.89 100.623C214.983 102.147 213.22 102.913 210.591 102.913C207.963 102.913 206.191 102.13 205.276 100.572C204.362 99.0143 203.896 96.4435 203.896 92.8768C203.896 89.3101 204.362 86.7054 205.293 85.071C206.225 83.4367 207.98 82.6195 210.558 82.6195C213.137 82.6195 214.9 83.4452 215.84 85.0881C216.78 86.7309 217.254 89.3527 217.254 92.9449C217.254 96.537 216.796 99.0994 215.89 100.623Z" fill="white"/>
</g>
<defs>
<clipPath id="clip0">
<rect x="65" y="69" width="155" height="44" fill="white"/>
</clipPath>
</defs>
</svg>
