<svg width="279" height="83" viewBox="0 0 279 83" fill="none" xmlns="http://www.w3.org/2000/svg">
<rect width="279" height="83" fill="#3C80FF"/>
<path d="M17.754 52.49V64.352H24.252V65.468H16.494V52.49H17.754ZM36.0632 65.468H34.7132L33.2732 61.436H27.7832L26.3072 65.468H25.0112L29.8352 52.49H31.2572L36.0632 65.468ZM28.1792 60.338H32.8772L31.6172 56.828C31.5332 56.612 31.4552 56.402 31.3832 56.198C31.3112 55.994 31.2332 55.772 31.1492 55.532C31.0652 55.28 30.9752 55.004 30.8792 54.704C30.7832 54.392 30.6692 54.026 30.5372 53.606C30.4172 54.026 30.3092 54.392 30.2132 54.704C30.1172 55.004 30.0272 55.28 29.9432 55.532C29.8592 55.772 29.7812 55.994 29.7092 56.198C29.6372 56.402 29.5592 56.612 29.4752 56.828L28.1792 60.338ZM41.2813 60.158V65.468H40.0213V60.158L35.5573 52.49H36.9793L40.6693 59.006L44.2693 52.49H45.6733L41.2813 60.158ZM46.4214 52.49H47.8074L51.8034 64.172H51.8214L55.8174 52.49H57.1314L52.4874 65.468H51.0474L46.4214 52.49ZM63.4682 52.292C64.2722 52.292 64.9862 52.43 65.6102 52.706C66.2342 52.97 66.7622 53.354 67.1942 53.858C67.6262 54.362 67.9562 54.974 68.1842 55.694C68.4122 56.402 68.5262 57.2 68.5262 58.088V59.87C68.5262 60.758 68.4122 61.562 68.1842 62.282C67.9562 62.99 67.6262 63.596 67.1942 64.1C66.7622 64.604 66.2342 64.988 65.6102 65.252C64.9862 65.528 64.2722 65.666 63.4682 65.666C62.6642 65.666 61.9502 65.528 61.3262 65.252C60.7022 64.988 60.1742 64.604 59.7422 64.1C59.3102 63.596 58.9802 62.99 58.7522 62.282C58.5242 61.562 58.4102 60.758 58.4102 59.87V58.088C58.4102 57.2 58.5182 56.402 58.7342 55.694C58.9622 54.974 59.2922 54.362 59.7242 53.858C60.1562 53.354 60.6842 52.97 61.3082 52.706C61.9442 52.43 62.6642 52.292 63.4682 52.292ZM63.4682 64.532C64.6322 64.532 65.5502 64.13 66.2222 63.326C66.9062 62.51 67.2482 61.322 67.2482 59.762V58.196C67.2482 56.636 66.9062 55.454 66.2222 54.65C65.5502 53.834 64.6322 53.426 63.4682 53.426C62.3042 53.426 61.3802 53.834 60.6962 54.65C60.0242 55.454 59.6882 56.636 59.6882 58.196V59.762C59.6882 61.322 60.0242 62.51 60.6962 63.326C61.3802 64.13 62.3042 64.532 63.4682 64.532ZM75.6971 52.49H79.8371C82.5851 52.49 83.9591 53.546 83.9591 55.658V56.036C83.9591 56.324 83.9231 56.606 83.8511 56.882C83.7791 57.146 83.6591 57.392 83.4911 57.62C83.3351 57.848 83.1191 58.052 82.8431 58.232C82.5791 58.4 82.2551 58.532 81.8711 58.628C82.6631 58.748 83.3051 59.048 83.7971 59.528C84.3011 60.008 84.5531 60.698 84.5531 61.598V62.048C84.5531 63.116 84.2111 63.956 83.5271 64.568C82.8551 65.168 81.8111 65.468 80.3951 65.468H75.6971V52.49ZM76.9391 64.352H80.2871C81.3071 64.352 82.0571 64.16 82.5371 63.776C83.0291 63.38 83.2751 62.798 83.2751 62.03V61.634C83.2751 61.238 83.2211 60.89 83.1131 60.59C83.0051 60.29 82.8191 60.038 82.5551 59.834C82.2911 59.63 81.9431 59.48 81.5111 59.384C81.0791 59.276 80.5391 59.222 79.8911 59.222H76.9391V64.352ZM76.9391 53.588V58.16H79.8731C80.7731 58.16 81.4691 58.004 81.9611 57.692C82.4531 57.38 82.6991 56.816 82.6991 56V55.676C82.6991 54.908 82.4591 54.368 81.9791 54.056C81.5111 53.744 80.7671 53.588 79.7471 53.588H76.9391ZM86.7173 51.86H87.9413V65.468H86.7173V51.86ZM94.125 65.612C93.021 65.612 92.181 65.306 91.605 64.694C91.029 64.082 90.741 63.272 90.741 62.264V55.766H91.965V61.958C91.965 62.306 91.995 62.636 92.055 62.948C92.127 63.248 92.247 63.518 92.415 63.758C92.583 63.986 92.817 64.166 93.117 64.298C93.429 64.43 93.825 64.496 94.305 64.496C94.713 64.496 95.085 64.424 95.421 64.28C95.769 64.136 96.063 63.95 96.303 63.722C96.555 63.482 96.747 63.218 96.879 62.93C97.023 62.642 97.095 62.354 97.095 62.066V55.766H98.319V65.468H97.113V64.118C96.885 64.49 96.519 64.832 96.015 65.144C95.523 65.456 94.893 65.612 94.125 65.612ZM107.393 59.978V59.816C107.393 58.796 107.159 58.016 106.691 57.476C106.223 56.936 105.563 56.666 104.711 56.666C103.847 56.666 103.175 56.954 102.695 57.53C102.227 58.094 101.993 58.856 101.993 59.816V59.978H107.393ZM108.401 64.514C108.017 64.79 107.537 65.042 106.961 65.27C106.385 65.498 105.689 65.612 104.873 65.612C103.577 65.612 102.569 65.228 101.849 64.46C101.129 63.68 100.769 62.582 100.769 61.166V59.96C100.769 58.58 101.117 57.506 101.813 56.738C102.521 55.97 103.487 55.586 104.711 55.586C105.983 55.586 106.949 55.982 107.609 56.774C108.281 57.554 108.617 58.628 108.617 59.996V61.004H101.993V61.166C101.993 62.246 102.251 63.08 102.767 63.668C103.283 64.244 103.991 64.532 104.891 64.532C105.539 64.532 106.109 64.436 106.601 64.244C107.093 64.052 107.513 63.83 107.861 63.578L108.401 64.514Z" fill="white"/>
</svg>
