<svg width="279" height="83" viewBox="0 0 279 83" fill="none" xmlns="http://www.w3.org/2000/svg">
<rect x="0.5" y="0.5" width="278" height="82" fill="white" stroke="#E4E4E4"/>
<path d="M16.754 53.49V65.352H23.252V66.468H15.494V53.49H16.754ZM35.0632 66.468H33.7132L32.2732 62.436H26.7832L25.3072 66.468H24.0112L28.8352 53.49H30.2572L35.0632 66.468ZM27.1792 61.338H31.8772L30.6172 57.828C30.5332 57.612 30.4552 57.402 30.3832 57.198C30.3112 56.994 30.2332 56.772 30.1492 56.532C30.0652 56.28 29.9752 56.004 29.8792 55.704C29.7832 55.392 29.6692 55.026 29.5372 54.606C29.4172 55.026 29.3092 55.392 29.2132 55.704C29.1172 56.004 29.0272 56.28 28.9432 56.532C28.8592 56.772 28.7812 56.994 28.7092 57.198C28.6372 57.402 28.5592 57.612 28.4752 57.828L27.1792 61.338ZM40.2813 61.158V66.468H39.0213V61.158L34.5573 53.49H35.9793L39.6693 60.006L43.2693 53.49H44.6733L40.2813 61.158ZM45.4214 53.49H46.8074L50.8034 65.172H50.8214L54.8174 53.49H56.1314L51.4874 66.468H50.0474L45.4214 53.49ZM62.4682 53.292C63.2722 53.292 63.9862 53.43 64.6102 53.706C65.2342 53.97 65.7622 54.354 66.1942 54.858C66.6262 55.362 66.9562 55.974 67.1842 56.694C67.4122 57.402 67.5262 58.2 67.5262 59.088V60.87C67.5262 61.758 67.4122 62.562 67.1842 63.282C66.9562 63.99 66.6262 64.596 66.1942 65.1C65.7622 65.604 65.2342 65.988 64.6102 66.252C63.9862 66.528 63.2722 66.666 62.4682 66.666C61.6642 66.666 60.9502 66.528 60.3262 66.252C59.7022 65.988 59.1742 65.604 58.7422 65.1C58.3102 64.596 57.9802 63.99 57.7522 63.282C57.5242 62.562 57.4102 61.758 57.4102 60.87V59.088C57.4102 58.2 57.5182 57.402 57.7342 56.694C57.9622 55.974 58.2922 55.362 58.7242 54.858C59.1562 54.354 59.6842 53.97 60.3082 53.706C60.9442 53.43 61.6642 53.292 62.4682 53.292ZM62.4682 65.532C63.6322 65.532 64.5502 65.13 65.2222 64.326C65.9062 63.51 66.2482 62.322 66.2482 60.762V59.196C66.2482 57.636 65.9062 56.454 65.2222 55.65C64.5502 54.834 63.6322 54.426 62.4682 54.426C61.3042 54.426 60.3802 54.834 59.6962 55.65C59.0242 56.454 58.6882 57.636 58.6882 59.196V60.762C58.6882 62.322 59.0242 63.51 59.6962 64.326C60.3802 65.13 61.3042 65.532 62.4682 65.532ZM73.7431 53.49H75.0931L78.0091 65.118H78.0271L81.1231 53.49H82.5451L85.6411 65.118H85.6591L88.5931 53.49H89.9071L86.3251 66.468H84.8851L81.8071 54.948L78.7291 66.468H77.2891L73.7431 53.49ZM96.0633 56.586C97.1793 56.586 98.0373 56.892 98.6373 57.504C99.2493 58.104 99.5553 58.914 99.5553 59.934V66.468H98.3313V60.24C98.3313 59.892 98.2953 59.568 98.2233 59.268C98.1513 58.956 98.0193 58.686 97.8273 58.458C97.6473 58.218 97.3953 58.032 97.0713 57.9C96.7593 57.768 96.3633 57.702 95.8833 57.702C95.4753 57.702 95.0973 57.78 94.7493 57.936C94.4133 58.08 94.1253 58.272 93.8853 58.512C93.6453 58.752 93.4533 59.016 93.3093 59.304C93.1773 59.592 93.1113 59.88 93.1113 60.168V66.468H91.8873V52.86H93.1113V58.116C93.2193 57.936 93.3633 57.756 93.5433 57.576C93.7233 57.384 93.9333 57.216 94.1733 57.072C94.4253 56.928 94.7073 56.814 95.0193 56.73C95.3313 56.634 95.6793 56.586 96.0633 56.586ZM102.418 56.766H103.642V66.468H102.418V56.766ZM102.364 53.544H103.696V54.912H102.364V53.544ZM107.339 57.81H105.683V56.766H107.339V54.264H108.563V56.766H111.245V57.81H108.563V63.714C108.563 64.374 108.665 64.836 108.869 65.1C109.085 65.364 109.439 65.496 109.931 65.496C110.411 65.496 110.867 65.436 111.299 65.316L111.479 66.324C111.287 66.396 111.029 66.45 110.705 66.486C110.393 66.534 110.105 66.558 109.841 66.558C109.421 66.558 109.049 66.51 108.725 66.414C108.413 66.318 108.155 66.162 107.951 65.946C107.747 65.73 107.591 65.448 107.483 65.1C107.387 64.74 107.339 64.296 107.339 63.768V57.81ZM119.735 60.978V60.816C119.735 59.796 119.501 59.016 119.033 58.476C118.565 57.936 117.905 57.666 117.053 57.666C116.189 57.666 115.517 57.954 115.037 58.53C114.569 59.094 114.335 59.856 114.335 60.816V60.978H119.735ZM120.743 65.514C120.359 65.79 119.879 66.042 119.303 66.27C118.727 66.498 118.031 66.612 117.215 66.612C115.919 66.612 114.911 66.228 114.191 65.46C113.471 64.68 113.111 63.582 113.111 62.166V60.96C113.111 59.58 113.459 58.506 114.155 57.738C114.863 56.97 115.829 56.586 117.053 56.586C118.325 56.586 119.291 56.982 119.951 57.774C120.623 58.554 120.959 59.628 120.959 60.996V62.004H114.335V62.166C114.335 63.246 114.593 64.08 115.109 64.668C115.625 65.244 116.333 65.532 117.233 65.532C117.881 65.532 118.451 65.436 118.943 65.244C119.435 65.052 119.855 64.83 120.203 64.578L120.743 65.514Z" fill="#595959"/>
</svg>
