<svg width="881" height="511" viewBox="0 0 881 511" fill="none" xmlns="http://www.w3.org/2000/svg">
<rect width="880" height="240" fill="white"/>
<line x1="0.25" y1="1.0928e-08" x2="0.24999" y2="240" stroke="#DDDDDD" stroke-width="0.5"/>
<line x1="20.25" y1="1.0928e-08" x2="20.25" y2="240" stroke="#DDDDDD" stroke-width="0.5"/>
<line x1="40.25" y1="1.0928e-08" x2="40.25" y2="240" stroke="#DDDDDD" stroke-width="0.5"/>
<line x1="60.25" y1="1.0928e-08" x2="60.25" y2="240" stroke="#DDDDDD" stroke-width="0.5"/>
<line x1="80.25" y1="1.0928e-08" x2="80.25" y2="240" stroke="#DDDDDD" stroke-width="0.5"/>
<line x1="100.25" y1="1.0928e-08" x2="100.25" y2="240" stroke="#DDDDDD" stroke-width="0.5"/>
<line x1="120.25" y1="1.0928e-08" x2="120.25" y2="240" stroke="#DDDDDD" stroke-width="0.5"/>
<line x1="140.25" y1="1.0928e-08" x2="140.25" y2="240" stroke="#DDDDDD" stroke-width="0.5"/>
<line x1="160.25" y1="1.0928e-08" x2="160.25" y2="240" stroke="#DDDDDD" stroke-width="0.5"/>
<line x1="180.25" y1="1.0928e-08" x2="180.25" y2="240" stroke="#DDDDDD" stroke-width="0.5"/>
<line x1="200.25" y1="1.0928e-08" x2="200.25" y2="240" stroke="#DDDDDD" stroke-width="0.5"/>
<line x1="220.25" y1="1.0928e-08" x2="220.25" y2="240" stroke="#DDDDDD" stroke-width="0.5"/>
<line x1="240.25" y1="1.0928e-08" x2="240.25" y2="240" stroke="#DDDDDD" stroke-width="0.5"/>
<line x1="260.25" y1="1.0928e-08" x2="260.25" y2="240" stroke="#DDDDDD" stroke-width="0.5"/>
<line x1="280.25" y1="1.0928e-08" x2="280.25" y2="240" stroke="#DDDDDD" stroke-width="0.5"/>
<line x1="300.25" y1="1.0928e-08" x2="300.25" y2="240" stroke="#DDDDDD" stroke-width="0.5"/>
<line x1="320.25" y1="1.0928e-08" x2="320.25" y2="240" stroke="#DDDDDD" stroke-width="0.5"/>
<line x1="340.25" y1="1.0928e-08" x2="340.25" y2="240" stroke="#DDDDDD" stroke-width="0.5"/>
<line x1="360.25" y1="1.0928e-08" x2="360.25" y2="240" stroke="#DDDDDD" stroke-width="0.5"/>
<line x1="380.25" y1="1.0928e-08" x2="380.25" y2="240" stroke="#DDDDDD" stroke-width="0.5"/>
<line x1="400.25" y1="1.0928e-08" x2="400.25" y2="240" stroke="#DDDDDD" stroke-width="0.5"/>
<line x1="420.25" y1="1.0928e-08" x2="420.25" y2="240" stroke="#DDDDDD" stroke-width="0.5"/>
<line x1="440.25" y1="1.0928e-08" x2="440.25" y2="240" stroke="#DDDDDD" stroke-width="0.5"/>
<line x1="460.25" y1="1.0928e-08" x2="460.25" y2="240" stroke="#DDDDDD" stroke-width="0.5"/>
<line x1="480.25" y1="1.0928e-08" x2="480.25" y2="240" stroke="#DDDDDD" stroke-width="0.5"/>
<line x1="500.25" y1="1.0928e-08" x2="500.25" y2="240" stroke="#DDDDDD" stroke-width="0.5"/>
<line x1="520.25" y1="1.0928e-08" x2="520.25" y2="240" stroke="#DDDDDD" stroke-width="0.5"/>
<line x1="540.25" y1="1.0928e-08" x2="540.25" y2="240" stroke="#DDDDDD" stroke-width="0.5"/>
<line x1="560.25" y1="1.0928e-08" x2="560.25" y2="240" stroke="#DDDDDD" stroke-width="0.5"/>
<line x1="580.25" y1="1.0928e-08" x2="580.25" y2="240" stroke="#DDDDDD" stroke-width="0.5"/>
<line x1="600.25" y1="1.0928e-08" x2="600.25" y2="240" stroke="#DDDDDD" stroke-width="0.5"/>
<line x1="620.25" y1="1.0928e-08" x2="620.25" y2="240" stroke="#DDDDDD" stroke-width="0.5"/>
<line x1="640.25" y1="1.0928e-08" x2="640.25" y2="240" stroke="#DDDDDD" stroke-width="0.5"/>
<line x1="660.25" y1="1.0928e-08" x2="660.25" y2="240" stroke="#DDDDDD" stroke-width="0.5"/>
<line x1="680.25" y1="1.0928e-08" x2="680.25" y2="240" stroke="#DDDDDD" stroke-width="0.5"/>
<line x1="700.25" y1="1.0928e-08" x2="700.25" y2="240" stroke="#DDDDDD" stroke-width="0.5"/>
<line x1="720.25" y1="1.0928e-08" x2="720.25" y2="240" stroke="#DDDDDD" stroke-width="0.5"/>
<line x1="740.25" y1="1.0928e-08" x2="740.25" y2="240" stroke="#DDDDDD" stroke-width="0.5"/>
<line x1="760.25" y1="1.0928e-08" x2="760.25" y2="240" stroke="#DDDDDD" stroke-width="0.5"/>
<line x1="780.25" y1="1.0928e-08" x2="780.25" y2="240" stroke="#DDDDDD" stroke-width="0.5"/>
<line x1="800.25" y1="1.0928e-08" x2="800.25" y2="240" stroke="#DDDDDD" stroke-width="0.5"/>
<line x1="820.25" y1="1.0928e-08" x2="820.25" y2="240" stroke="#DDDDDD" stroke-width="0.5"/>
<line x1="840.25" y1="1.0928e-08" x2="840.25" y2="240" stroke="#DDDDDD" stroke-width="0.5"/>
<line x1="860.25" y1="1.0928e-08" x2="860.25" y2="240" stroke="#DDDDDD" stroke-width="0.5"/>
<line x1="880.25" y1="1.0928e-08" x2="880.25" y2="240" stroke="#DDDDDD" stroke-width="0.5"/>
<line x1="880" y1="20.25" y2="20.25" stroke="#DDDDDD" stroke-width="0.5"/>
<line x1="880" y1="0.25" y2="0.25" stroke="#DDDDDD" stroke-width="0.5"/>
<line x1="880" y1="40.25" y2="40.25" stroke="#DDDDDD" stroke-width="0.5"/>
<line x1="880" y1="60.25" y2="60.25" stroke="#DDDDDD" stroke-width="0.5"/>
<line x1="880" y1="80.25" y2="80.25" stroke="#DDDDDD" stroke-width="0.5"/>
<line x1="880" y1="100.25" y2="100.25" stroke="#DDDDDD" stroke-width="0.5"/>
<line x1="880" y1="120.25" y2="120.25" stroke="#DDDDDD" stroke-width="0.5"/>
<line x1="880" y1="140.25" y2="140.25" stroke="#DDDDDD" stroke-width="0.5"/>
<line x1="880" y1="160.25" y2="160.25" stroke="#DDDDDD" stroke-width="0.5"/>
<line x1="880" y1="180.25" y2="180.25" stroke="#DDDDDD" stroke-width="0.5"/>
<line x1="880" y1="200.25" y2="200.25" stroke="#DDDDDD" stroke-width="0.5"/>
<line x1="880" y1="220.25" y2="220.25" stroke="#DDDDDD" stroke-width="0.5"/>
<line x1="880" y1="240.25" y2="240.25" stroke="#DDDDDD" stroke-width="0.5"/>
<path d="M32.0123 28.136H34.4443V29.144H32.0123V37.176H30.8763V22.552H32.0123V28.136ZM21.1483 32.904C21.9696 32.4347 22.6736 32.0133 23.2603 31.64C23.8469 31.2667 24.3376 30.92 24.7323 30.6C25.1376 30.2693 25.4629 29.96 25.7083 29.672C25.9536 29.384 26.1403 29.096 26.2683 28.808C26.3963 28.5093 26.4816 28.1947 26.5243 27.864C26.5669 27.5333 26.5883 27.1707 26.5883 26.776V24.968H21.3083V23.944H27.6923V26.792C27.6923 27.5173 27.6229 28.152 27.4843 28.696C27.3563 29.2293 27.0843 29.752 26.6683 30.264C26.2523 30.7653 25.6496 31.2933 24.8602 31.848C24.0816 32.4027 23.0416 33.0587 21.7403 33.816L21.1483 32.904ZM46.6868 23.704V28.04H38.3668V30.408H47.0228V31.384H42.5588V34.136H48.7188V35.112H35.2788V34.136H41.4388V31.384H37.2628V27.08H45.5828V24.68H37.2148V23.704H46.6868ZM53.2013 34.6C53.2013 34.2373 53.3133 33.9067 53.5373 33.608C53.7613 33.2987 54.0653 33.0427 54.4493 32.84C54.8439 32.6267 55.3133 32.4613 55.8573 32.344C56.4013 32.2267 56.9933 32.168 57.6333 32.168C58.2733 32.168 58.8653 32.2267 59.4093 32.344C59.9533 32.4613 60.4173 32.6267 60.8013 32.84C61.1959 33.0427 61.5053 33.2987 61.7293 33.608C61.9533 33.9067 62.0653 34.2373 62.0653 34.6V35.144C62.0653 35.5173 61.9533 35.8533 61.7293 36.152C61.5053 36.4507 61.1959 36.7013 60.8013 36.904C60.4173 37.1173 59.9533 37.2827 59.4093 37.4C58.8653 37.5173 58.2733 37.576 57.6333 37.576C56.9933 37.576 56.4013 37.5173 55.8573 37.4C55.3133 37.2827 54.8439 37.1173 54.4493 36.904C54.0653 36.7013 53.7613 36.4507 53.5373 36.152C53.3133 35.8533 53.2013 35.5173 53.2013 35.144V34.6ZM54.1453 31.4C53.6546 31.4 53.2013 31.336 52.7853 31.208C52.3799 31.08 52.0279 30.904 51.7293 30.68C51.4413 30.456 51.2173 30.2 51.0573 29.912C50.8973 29.6133 50.8173 29.2987 50.8173 28.968V28.392C50.8173 28.0613 50.8973 27.752 51.0573 27.464C51.2173 27.1653 51.4413 26.904 51.7293 26.68C52.0279 26.456 52.3799 26.28 52.7853 26.152C53.2013 26.024 53.6546 25.96 54.1453 25.96C54.6359 25.96 55.0839 26.024 55.4893 26.152C55.9053 26.28 56.2573 26.456 56.5453 26.68C56.8439 26.904 57.0733 27.1653 57.2333 27.464C57.3933 27.752 57.4733 28.0613 57.4733 28.392V28.968C57.4733 29.2987 57.3933 29.6133 57.2333 29.912C57.0733 30.2 56.8439 30.456 56.5453 30.68C56.2573 30.904 55.9053 31.08 55.4893 31.208C55.0839 31.336 54.6359 31.4 54.1453 31.4ZM54.2893 35.08C54.2893 35.3253 54.3799 35.5387 54.5613 35.72C54.7426 35.912 54.9879 36.0773 55.2973 36.216C55.6066 36.3547 55.9639 36.456 56.3693 36.52C56.7746 36.5947 57.1959 36.632 57.6333 36.632C58.0706 36.632 58.4919 36.5947 58.8973 36.52C59.3026 36.456 59.6599 36.3547 59.9693 36.216C60.2786 36.0773 60.5239 35.912 60.7053 35.72C60.8866 35.5387 60.9773 35.3253 60.9773 35.08V34.664C60.9773 34.4293 60.8866 34.216 60.7053 34.024C60.5239 33.832 60.2786 33.6667 59.9693 33.528C59.6599 33.3893 59.3026 33.288 58.8973 33.224C58.4919 33.1493 58.0706 33.112 57.6333 33.112C57.1959 33.112 56.7746 33.1493 56.3693 33.224C55.9639 33.288 55.6066 33.3893 55.2973 33.528C54.9879 33.6667 54.7426 33.832 54.5613 34.024C54.3799 34.216 54.2893 34.4293 54.2893 34.664V35.08ZM60.8813 26.232V22.552H61.9853V31.752H60.8813V29.992H58.4013V29.016H60.8813V27.208H58.4013V26.232H60.8813ZM54.1453 26.904C53.8039 26.904 53.4946 26.9467 53.2173 27.032C52.9506 27.1067 52.7159 27.2187 52.5133 27.368C52.3106 27.5067 52.1559 27.672 52.0493 27.864C51.9426 28.0453 51.8893 28.2373 51.8893 28.44V28.92C51.8893 29.1333 51.9426 29.3307 52.0493 29.512C52.1559 29.6933 52.3106 29.8587 52.5133 30.008C52.7159 30.1467 52.9506 30.2587 53.2173 30.344C53.4946 30.4187 53.8039 30.456 54.1453 30.456C54.4759 30.456 54.7799 30.4187 55.0573 30.344C55.3346 30.2587 55.5746 30.1467 55.7773 30.008C55.9799 29.8587 56.1346 29.6933 56.2413 29.512C56.3479 29.3307 56.4013 29.1333 56.4013 28.92V28.44C56.4013 28.2373 56.3479 28.0453 56.2413 27.864C56.1346 27.672 55.9799 27.5067 55.7773 27.368C55.5746 27.2187 55.3346 27.1067 55.0573 27.032C54.7799 26.9467 54.4759 26.904 54.1453 26.904ZM54.6893 24.232H58.4493V25.208H49.9693V24.232H53.5693V22.376H54.6893V24.232Z" fill="#3C80FF"/>
<path d="M353.601 123.811C352.275 128.316 348.116 131.604 343.169 131.604C338.223 131.604 334.065 128.316 332.738 123.811H315.926V101.309C316.93 101.899 318.077 102.257 319.332 102.257C322.988 102.257 325.963 99.2897 325.963 95.6436C325.963 91.9975 322.988 89.0305 319.332 89.0305C318.095 89.0305 316.93 89.3701 315.926 89.9778V80.791H273V166.403H315.926V166.368H358.852V123.83H353.601V123.811Z" fill="#3C80FF"/>
<path d="M365.736 74H322.828V85.5282C327.04 86.9759 330.069 90.9616 330.069 95.6444C330.069 100.345 327.04 104.313 322.828 105.761V116.538H339.192C337.848 117.7 336.988 119.398 336.988 121.31C336.988 124.795 339.82 127.602 343.297 127.602C346.792 127.602 349.605 124.778 349.605 121.31C349.605 119.398 348.745 117.682 347.401 116.538H365.736V74Z" fill="#FED400"/>
<path d="M436.638 131.23H436.674L436.853 130.461L436.638 131.23Z" fill="#39393C"/>
<path d="M395.702 98.3076H390.002V149.496H418.249V144.385H395.702V98.3076Z" fill="#39393C"/>
<path d="M440.132 98.3076L426.044 149.496H431.672L435.382 136.324H435.4L436.672 131.23H436.637L436.852 130.461L436.959 130.032L436.852 130.461L444.433 103.187H448.287L456.065 131.23H456.03L457.338 136.324L461.048 149.496H466.676L452.588 98.3076H440.132Z" fill="#39393C"/>
<path d="M489.887 122.276L477.144 98.3076H470.691L487.073 127.977V149.496H492.791V127.977L509.101 98.3076H502.649L489.887 122.276Z" fill="#39393C"/>
<path d="M538.549 144.456H534.391L522.597 98.3076H516.665L530.089 149.496H542.851L556.275 98.3076H550.343L538.549 144.456Z" fill="#39393C"/>
<path d="M602.518 104.08C599.525 99.7368 594.255 97.5742 586.674 97.5742C579.11 97.5742 573.841 99.7547 570.884 104.116C567.908 108.477 566.438 115.161 566.438 124.151C566.438 133.16 567.89 139.737 570.812 143.937C573.733 148.137 579.039 150.228 586.728 150.228C594.417 150.228 599.722 148.191 602.643 144.098C605.565 140.005 607.017 133.392 607.017 124.277C606.999 115.144 605.511 108.423 602.518 104.08ZM598.145 140.398C596.191 143.597 592.391 145.206 586.728 145.206C581.064 145.206 577.246 143.562 575.275 140.291C573.303 137.02 572.299 131.623 572.299 124.134C572.299 116.645 573.303 111.176 575.31 107.744C577.318 104.312 581.099 102.597 586.656 102.597C592.212 102.597 596.012 104.33 598.037 107.78C600.062 111.229 601.084 116.734 601.084 124.277C601.084 131.819 600.098 137.199 598.145 140.398Z" fill="#39393C"/>
<rect y="270" width="880" height="240" fill="white"/>
<line x1="0.25" y1="270" x2="0.24999" y2="510" stroke="#DDDDDD" stroke-width="0.5"/>
<line x1="20.25" y1="270" x2="20.25" y2="510" stroke="#DDDDDD" stroke-width="0.5"/>
<line x1="40.25" y1="270" x2="40.25" y2="510" stroke="#DDDDDD" stroke-width="0.5"/>
<line x1="60.25" y1="270" x2="60.25" y2="510" stroke="#DDDDDD" stroke-width="0.5"/>
<line x1="80.25" y1="270" x2="80.25" y2="510" stroke="#DDDDDD" stroke-width="0.5"/>
<line x1="100.25" y1="270" x2="100.25" y2="510" stroke="#DDDDDD" stroke-width="0.5"/>
<line x1="120.25" y1="270" x2="120.25" y2="510" stroke="#DDDDDD" stroke-width="0.5"/>
<line x1="140.25" y1="270" x2="140.25" y2="510" stroke="#DDDDDD" stroke-width="0.5"/>
<line x1="160.25" y1="270" x2="160.25" y2="510" stroke="#DDDDDD" stroke-width="0.5"/>
<line x1="180.25" y1="270" x2="180.25" y2="510" stroke="#DDDDDD" stroke-width="0.5"/>
<line x1="200.25" y1="270" x2="200.25" y2="510" stroke="#DDDDDD" stroke-width="0.5"/>
<line x1="220.25" y1="270" x2="220.25" y2="510" stroke="#DDDDDD" stroke-width="0.5"/>
<line x1="240.25" y1="270" x2="240.25" y2="510" stroke="#DDDDDD" stroke-width="0.5"/>
<line x1="260.25" y1="270" x2="260.25" y2="510" stroke="#DDDDDD" stroke-width="0.5"/>
<line x1="280.25" y1="270" x2="280.25" y2="510" stroke="#DDDDDD" stroke-width="0.5"/>
<line x1="300.25" y1="270" x2="300.25" y2="510" stroke="#DDDDDD" stroke-width="0.5"/>
<line x1="320.25" y1="270" x2="320.25" y2="510" stroke="#DDDDDD" stroke-width="0.5"/>
<line x1="340.25" y1="270" x2="340.25" y2="510" stroke="#DDDDDD" stroke-width="0.5"/>
<line x1="360.25" y1="270" x2="360.25" y2="510" stroke="#DDDDDD" stroke-width="0.5"/>
<line x1="380.25" y1="270" x2="380.25" y2="510" stroke="#DDDDDD" stroke-width="0.5"/>
<line x1="400.25" y1="270" x2="400.25" y2="510" stroke="#DDDDDD" stroke-width="0.5"/>
<line x1="420.25" y1="270" x2="420.25" y2="510" stroke="#DDDDDD" stroke-width="0.5"/>
<line x1="440.25" y1="270" x2="440.25" y2="510" stroke="#DDDDDD" stroke-width="0.5"/>
<line x1="460.25" y1="270" x2="460.25" y2="510" stroke="#DDDDDD" stroke-width="0.5"/>
<line x1="480.25" y1="270" x2="480.25" y2="510" stroke="#DDDDDD" stroke-width="0.5"/>
<line x1="500.25" y1="270" x2="500.25" y2="510" stroke="#DDDDDD" stroke-width="0.5"/>
<line x1="520.25" y1="270" x2="520.25" y2="510" stroke="#DDDDDD" stroke-width="0.5"/>
<line x1="540.25" y1="270" x2="540.25" y2="510" stroke="#DDDDDD" stroke-width="0.5"/>
<line x1="560.25" y1="270" x2="560.25" y2="510" stroke="#DDDDDD" stroke-width="0.5"/>
<line x1="580.25" y1="270" x2="580.25" y2="510" stroke="#DDDDDD" stroke-width="0.5"/>
<line x1="600.25" y1="270" x2="600.25" y2="510" stroke="#DDDDDD" stroke-width="0.5"/>
<line x1="620.25" y1="270" x2="620.25" y2="510" stroke="#DDDDDD" stroke-width="0.5"/>
<line x1="640.25" y1="270" x2="640.25" y2="510" stroke="#DDDDDD" stroke-width="0.5"/>
<line x1="660.25" y1="270" x2="660.25" y2="510" stroke="#DDDDDD" stroke-width="0.5"/>
<line x1="680.25" y1="270" x2="680.25" y2="510" stroke="#DDDDDD" stroke-width="0.5"/>
<line x1="700.25" y1="270" x2="700.25" y2="510" stroke="#DDDDDD" stroke-width="0.5"/>
<line x1="720.25" y1="270" x2="720.25" y2="510" stroke="#DDDDDD" stroke-width="0.5"/>
<line x1="740.25" y1="270" x2="740.25" y2="510" stroke="#DDDDDD" stroke-width="0.5"/>
<line x1="760.25" y1="270" x2="760.25" y2="510" stroke="#DDDDDD" stroke-width="0.5"/>
<line x1="780.25" y1="270" x2="780.25" y2="510" stroke="#DDDDDD" stroke-width="0.5"/>
<line x1="800.25" y1="270" x2="800.25" y2="510" stroke="#DDDDDD" stroke-width="0.5"/>
<line x1="820.25" y1="270" x2="820.25" y2="510" stroke="#DDDDDD" stroke-width="0.5"/>
<line x1="840.25" y1="270" x2="840.25" y2="510" stroke="#DDDDDD" stroke-width="0.5"/>
<line x1="860.25" y1="270" x2="860.25" y2="510" stroke="#DDDDDD" stroke-width="0.5"/>
<line x1="880.25" y1="270" x2="880.25" y2="510" stroke="#DDDDDD" stroke-width="0.5"/>
<line x1="880" y1="290.25" y2="290.25" stroke="#DDDDDD" stroke-width="0.5"/>
<line x1="880" y1="270.25" y2="270.25" stroke="#DDDDDD" stroke-width="0.5"/>
<line x1="880" y1="310.25" y2="310.25" stroke="#DDDDDD" stroke-width="0.5"/>
<line x1="880" y1="330.25" y2="330.25" stroke="#DDDDDD" stroke-width="0.5"/>
<line x1="880" y1="350.25" y2="350.25" stroke="#DDDDDD" stroke-width="0.5"/>
<line x1="880" y1="370.25" y2="370.25" stroke="#DDDDDD" stroke-width="0.5"/>
<line x1="880" y1="390.25" y2="390.25" stroke="#DDDDDD" stroke-width="0.5"/>
<line x1="880" y1="410.25" y2="410.25" stroke="#DDDDDD" stroke-width="0.5"/>
<line x1="880" y1="430.25" y2="430.25" stroke="#DDDDDD" stroke-width="0.5"/>
<line x1="880" y1="450.25" y2="450.25" stroke="#DDDDDD" stroke-width="0.5"/>
<line x1="880" y1="470.25" y2="470.25" stroke="#DDDDDD" stroke-width="0.5"/>
<line x1="880" y1="490.25" y2="490.25" stroke="#DDDDDD" stroke-width="0.5"/>
<line x1="880" y1="510.25" y2="510.25" stroke="#DDDDDD" stroke-width="0.5"/>
<path d="M32.6698 300.712H31.5498V292.552H32.6698V300.712ZM23.7258 301.576H32.6698V307.144H23.7258V301.576ZM24.8138 306.136H31.5818V302.584H24.8138V306.136ZM25.2138 297.048C25.1924 297.187 25.0644 297.379 24.8298 297.624C24.6058 297.859 24.3178 298.147 23.9658 298.488C23.6884 298.755 23.3364 299.069 22.9098 299.432C22.4831 299.784 22.0351 300.147 21.5658 300.52L20.8618 299.72C21.2991 299.389 21.7524 299.032 22.2218 298.648C22.6911 298.253 23.1071 297.875 23.4698 297.512C23.7258 297.256 23.9231 297.037 24.0618 296.856C24.2111 296.664 24.3231 296.472 24.3978 296.28C24.4831 296.088 24.5364 295.885 24.5578 295.672C24.5791 295.459 24.5898 295.197 24.5898 294.888V293.16H25.7418V294.856C25.7418 295.155 25.7524 295.411 25.7738 295.624C25.7951 295.827 25.8431 296.019 25.9178 296.2C26.0031 296.381 26.1204 296.568 26.2698 296.76C26.4298 296.941 26.6431 297.149 26.9098 297.384C27.3044 297.725 27.7044 298.061 28.1098 298.392C28.5258 298.723 28.9151 299.021 29.2778 299.288L28.6058 300.072C28.1578 299.731 27.7578 299.421 27.4058 299.144C27.0644 298.856 26.7551 298.595 26.4778 298.36C25.7204 297.72 25.3044 297.283 25.2298 297.048H25.2138ZM41.3763 299.32V297.896H37.2163V292.712H38.3203V294.472H45.5523V292.712H46.6563V297.896H42.4963V299.32H48.6563V300.28H35.2163V299.32H41.3763ZM46.6563 301.544V304.856H38.3203V306.296H47.0883V307.24H37.2163V303.928H45.5523V302.488H37.1363V301.544H46.6563ZM38.3203 296.936H45.5523V295.4H38.3203V296.936ZM54.5628 293.512H61.2668V294.52H55.6988V299.384C56.4988 299.384 57.1974 299.384 57.7948 299.384C58.4028 299.373 58.9628 299.357 59.4748 299.336C59.9974 299.304 60.4988 299.267 60.9788 299.224C61.4694 299.181 62.0028 299.128 62.5788 299.064L62.7068 300.056C62.3121 300.109 61.9388 300.152 61.5868 300.184C61.2348 300.216 60.8828 300.248 60.5308 300.28C60.1788 300.301 59.8054 300.323 59.4108 300.344C59.0268 300.355 58.6001 300.365 58.1308 300.376C57.6614 300.376 57.1334 300.381 56.5468 300.392C55.9708 300.392 55.3094 300.392 54.5628 300.392V293.512ZM65.2828 296.536H67.5228V297.528H65.2828V303.016H64.1628V292.552H65.2828V296.536ZM57.6668 305.992H65.7308V307H56.5308V302.184H57.6668V305.992ZM79.7013 294.104H71.4773V297.128H79.7813V298.088H75.6213V299.96H81.7813V300.92H68.3413V299.96H74.5013V298.088H70.3733V293.144H79.7013V294.104ZM70.0533 302.6H79.8453V307.288H78.7253V303.576H70.0533V302.6ZM86.2638 304.6C86.2638 304.237 86.3758 303.907 86.5998 303.608C86.8238 303.299 87.1278 303.043 87.5118 302.84C87.9064 302.627 88.3758 302.461 88.9198 302.344C89.4638 302.227 90.0558 302.168 90.6958 302.168C91.3358 302.168 91.9278 302.227 92.4718 302.344C93.0158 302.461 93.4798 302.627 93.8638 302.84C94.2584 303.043 94.5678 303.299 94.7918 303.608C95.0158 303.907 95.1278 304.237 95.1278 304.6V305.144C95.1278 305.517 95.0158 305.853 94.7918 306.152C94.5678 306.451 94.2584 306.701 93.8638 306.904C93.4798 307.117 93.0158 307.283 92.4718 307.4C91.9278 307.517 91.3358 307.576 90.6958 307.576C90.0558 307.576 89.4638 307.517 88.9198 307.4C88.3758 307.283 87.9064 307.117 87.5118 306.904C87.1278 306.701 86.8238 306.451 86.5998 306.152C86.3758 305.853 86.2638 305.517 86.2638 305.144V304.6ZM87.2078 301.4C86.7171 301.4 86.2638 301.336 85.8478 301.208C85.4424 301.08 85.0904 300.904 84.7918 300.68C84.5038 300.456 84.2798 300.2 84.1198 299.912C83.9598 299.613 83.8798 299.299 83.8798 298.968V298.392C83.8798 298.061 83.9598 297.752 84.1198 297.464C84.2798 297.165 84.5038 296.904 84.7918 296.68C85.0904 296.456 85.4424 296.28 85.8478 296.152C86.2638 296.024 86.7171 295.96 87.2078 295.96C87.6984 295.96 88.1464 296.024 88.5518 296.152C88.9678 296.28 89.3198 296.456 89.6078 296.68C89.9064 296.904 90.1358 297.165 90.2958 297.464C90.4558 297.752 90.5358 298.061 90.5358 298.392V298.968C90.5358 299.299 90.4558 299.613 90.2958 299.912C90.1358 300.2 89.9064 300.456 89.6078 300.68C89.3198 300.904 88.9678 301.08 88.5518 301.208C88.1464 301.336 87.6984 301.4 87.2078 301.4ZM87.3518 305.08C87.3518 305.325 87.4424 305.539 87.6238 305.72C87.8051 305.912 88.0504 306.077 88.3598 306.216C88.6691 306.355 89.0264 306.456 89.4318 306.52C89.8371 306.595 90.2584 306.632 90.6958 306.632C91.1331 306.632 91.5544 306.595 91.9598 306.52C92.3651 306.456 92.7224 306.355 93.0318 306.216C93.3411 306.077 93.5864 305.912 93.7678 305.72C93.9491 305.539 94.0398 305.325 94.0398 305.08V304.664C94.0398 304.429 93.9491 304.216 93.7678 304.024C93.5864 303.832 93.3411 303.667 93.0318 303.528C92.7224 303.389 92.3651 303.288 91.9598 303.224C91.5544 303.149 91.1331 303.112 90.6958 303.112C90.2584 303.112 89.8371 303.149 89.4318 303.224C89.0264 303.288 88.6691 303.389 88.3598 303.528C88.0504 303.667 87.8051 303.832 87.6238 304.024C87.4424 304.216 87.3518 304.429 87.3518 304.664V305.08ZM93.9438 296.232V292.552H95.0478V301.752H93.9438V299.992H91.4638V299.016H93.9438V297.208H91.4638V296.232H93.9438ZM87.2078 296.904C86.8664 296.904 86.5571 296.947 86.2798 297.032C86.0131 297.107 85.7784 297.219 85.5758 297.368C85.3731 297.507 85.2184 297.672 85.1118 297.864C85.0051 298.045 84.9518 298.237 84.9518 298.44V298.92C84.9518 299.133 85.0051 299.331 85.1118 299.512C85.2184 299.693 85.3731 299.859 85.5758 300.008C85.7784 300.147 86.0131 300.259 86.2798 300.344C86.5571 300.419 86.8664 300.456 87.2078 300.456C87.5384 300.456 87.8424 300.419 88.1198 300.344C88.3971 300.259 88.6371 300.147 88.8398 300.008C89.0424 299.859 89.1971 299.693 89.3038 299.512C89.4104 299.331 89.4638 299.133 89.4638 298.92V298.44C89.4638 298.237 89.4104 298.045 89.3038 297.864C89.1971 297.672 89.0424 297.507 88.8398 297.368C88.6371 297.219 88.3971 297.107 88.1198 297.032C87.8424 296.947 87.5384 296.904 87.2078 296.904ZM87.7518 294.232H91.5118V295.208H83.0318V294.232H86.6318V292.376H87.7518V294.232Z" fill="#3C80FF"/>
<path d="M471.324 297.448V292.856H472.444V306.456H471.324V298.472H468.652V297.448H471.324ZM465.772 293.72H466.908V297C466.908 297.384 466.919 297.715 466.94 297.992C466.972 298.259 467.026 298.504 467.1 298.728C467.175 298.952 467.276 299.171 467.404 299.384C467.532 299.597 467.698 299.832 467.9 300.088C468.167 300.429 468.487 300.808 468.86 301.224C469.244 301.64 469.666 302.072 470.124 302.52L469.372 303.256C468.967 302.851 468.578 302.44 468.204 302.024C467.842 301.608 467.522 301.245 467.244 300.936C466.999 300.659 466.796 300.408 466.636 300.184C466.487 299.949 466.396 299.789 466.364 299.704H466.348C466.327 299.789 466.247 299.939 466.108 300.152C465.97 300.365 465.778 300.621 465.532 300.92C465.234 301.272 464.892 301.651 464.508 302.056C464.135 302.461 463.692 302.92 463.18 303.432L462.412 302.68C462.647 302.456 462.882 302.227 463.116 301.992C463.362 301.747 463.586 301.512 463.788 301.288C464.002 301.064 464.194 300.851 464.364 300.648C464.546 300.445 464.7 300.264 464.828 300.104C465.02 299.859 465.175 299.629 465.292 299.416C465.42 299.192 465.516 298.963 465.58 298.728C465.655 298.493 465.703 298.237 465.724 297.96C465.756 297.683 465.772 297.363 465.772 297V293.72ZM475.308 307.176H474.188V292.552H475.308V307.176ZM488.687 293.704V298.04H480.367V300.408H489.023V301.384H484.559V304.136H490.719V305.112H477.279V304.136H483.439V301.384H479.263V297.08H487.583V294.68H479.215V293.704H488.687ZM495.201 304.6C495.201 304.237 495.313 303.907 495.537 303.608C495.761 303.299 496.065 303.043 496.449 302.84C496.844 302.627 497.313 302.461 497.857 302.344C498.401 302.227 498.993 302.168 499.633 302.168C500.273 302.168 500.865 302.227 501.409 302.344C501.953 302.461 502.417 302.627 502.801 302.84C503.196 303.043 503.505 303.299 503.729 303.608C503.953 303.907 504.065 304.237 504.065 304.6V305.144C504.065 305.517 503.953 305.853 503.729 306.152C503.505 306.451 503.196 306.701 502.801 306.904C502.417 307.117 501.953 307.283 501.409 307.4C500.865 307.517 500.273 307.576 499.633 307.576C498.993 307.576 498.401 307.517 497.857 307.4C497.313 307.283 496.844 307.117 496.449 306.904C496.065 306.701 495.761 306.451 495.537 306.152C495.313 305.853 495.201 305.517 495.201 305.144V304.6ZM496.145 301.4C495.655 301.4 495.201 301.336 494.785 301.208C494.38 301.08 494.028 300.904 493.729 300.68C493.441 300.456 493.217 300.2 493.057 299.912C492.897 299.613 492.817 299.299 492.817 298.968V298.392C492.817 298.061 492.897 297.752 493.057 297.464C493.217 297.165 493.441 296.904 493.729 296.68C494.028 296.456 494.38 296.28 494.785 296.152C495.201 296.024 495.655 295.96 496.145 295.96C496.636 295.96 497.084 296.024 497.489 296.152C497.905 296.28 498.257 296.456 498.545 296.68C498.844 296.904 499.073 297.165 499.233 297.464C499.393 297.752 499.473 298.061 499.473 298.392V298.968C499.473 299.299 499.393 299.613 499.233 299.912C499.073 300.2 498.844 300.456 498.545 300.68C498.257 300.904 497.905 301.08 497.489 301.208C497.084 301.336 496.636 301.4 496.145 301.4ZM496.289 305.08C496.289 305.325 496.38 305.539 496.561 305.72C496.743 305.912 496.988 306.077 497.297 306.216C497.607 306.355 497.964 306.456 498.369 306.52C498.775 306.595 499.196 306.632 499.633 306.632C500.071 306.632 500.492 306.595 500.897 306.52C501.303 306.456 501.66 306.355 501.969 306.216C502.279 306.077 502.524 305.912 502.705 305.72C502.887 305.539 502.977 305.325 502.977 305.08V304.664C502.977 304.429 502.887 304.216 502.705 304.024C502.524 303.832 502.279 303.667 501.969 303.528C501.66 303.389 501.303 303.288 500.897 303.224C500.492 303.149 500.071 303.112 499.633 303.112C499.196 303.112 498.775 303.149 498.369 303.224C497.964 303.288 497.607 303.389 497.297 303.528C496.988 303.667 496.743 303.832 496.561 304.024C496.38 304.216 496.289 304.429 496.289 304.664V305.08ZM502.881 296.232V292.552H503.985V301.752H502.881V299.992H500.401V299.016H502.881V297.208H500.401V296.232H502.881ZM496.145 296.904C495.804 296.904 495.495 296.947 495.217 297.032C494.951 297.107 494.716 297.219 494.513 297.368C494.311 297.507 494.156 297.672 494.049 297.864C493.943 298.045 493.889 298.237 493.889 298.44V298.92C493.889 299.133 493.943 299.331 494.049 299.512C494.156 299.693 494.311 299.859 494.513 300.008C494.716 300.147 494.951 300.259 495.217 300.344C495.495 300.419 495.804 300.456 496.145 300.456C496.476 300.456 496.78 300.419 497.057 300.344C497.335 300.259 497.575 300.147 497.777 300.008C497.98 299.859 498.135 299.693 498.241 299.512C498.348 299.331 498.401 299.133 498.401 298.92V298.44C498.401 298.237 498.348 298.045 498.241 297.864C498.135 297.672 497.98 297.507 497.777 297.368C497.575 297.219 497.335 297.107 497.057 297.032C496.78 296.947 496.476 296.904 496.145 296.904ZM496.689 294.232H500.449V295.208H491.969V294.232H495.569V292.376H496.689V294.232Z" fill="#3C80FF"/>
<path d="M667.146 361.608C666.067 365.274 662.678 367.959 658.663 367.959C654.637 367.959 651.248 365.274 650.18 361.608H636.484V343.267C637.293 343.752 638.232 344.032 639.247 344.032C642.226 344.032 644.643 341.617 644.643 338.641C644.643 335.665 642.226 333.249 639.247 333.249C638.232 333.249 637.293 333.53 636.484 334.015V326.532H601.558V396.329H636.494V396.296H671.42V361.608H667.146Z" fill="#3C80FF"/>
<path d="M677.033 321H642.096V330.403C645.528 331.589 647.989 334.823 647.989 338.651C647.989 342.479 645.517 345.725 642.096 346.9V355.677H655.414C654.314 356.615 653.623 358.017 653.623 359.57C653.623 362.406 655.922 364.702 658.76 364.702C661.599 364.702 663.897 362.406 663.897 359.57C663.897 358.006 663.196 356.615 662.106 355.677H677.033V321Z" fill="#FED400"/>
<path d="M593.517 444.318H593.538L593.679 443.746L593.517 444.318Z" fill="#39393C"/>
<path d="M563.231 419.916H559V457.861H579.906V454.076H563.231V419.916Z" fill="#39393C"/>
<path d="M596.095 419.916L585.669 457.861H589.846L592.587 448.091H592.609L593.537 444.318H593.515L593.677 443.746L593.753 443.433L593.677 443.746L599.279 423.528H602.139L607.902 444.318H607.87L608.831 448.091L611.572 457.861H615.749L605.323 419.916H596.095Z" fill="#39393C"/>
<path d="M632.931 437.675L623.487 419.916H618.717L630.837 441.902V457.861H635.068V441.902L647.145 419.916H642.364L632.931 437.675Z" fill="#39393C"/>
<path d="M668.925 454.13H665.86L657.128 419.916H652.735L662.676 457.861H672.109L682.049 419.916H677.656L668.925 454.13Z" fill="#39393C"/>
<path d="M716.263 424.187C714.051 420.973 710.144 419.367 704.542 419.367C698.94 419.367 695.044 420.984 692.853 424.219C690.662 427.454 689.562 432.403 689.562 439.078C689.562 445.752 690.641 450.637 692.799 453.742C694.958 456.847 698.886 458.4 704.574 458.4C710.262 458.4 714.191 456.88 716.35 453.85C718.508 450.82 719.587 445.914 719.587 439.153C719.587 432.392 718.476 427.411 716.263 424.187ZM713.025 451.111C711.579 453.484 708.762 454.68 704.574 454.68C700.387 454.68 697.559 453.462 696.091 451.036C694.623 448.61 693.9 444.609 693.9 439.056C693.9 433.503 694.645 429.449 696.124 426.915C697.602 424.37 700.408 423.108 704.52 423.108C708.633 423.108 711.439 424.392 712.95 426.947C714.45 429.503 715.195 433.578 715.195 439.175C715.195 444.749 714.472 448.739 713.025 451.111Z" fill="#39393C"/>
<path d="M260.601 393.811C259.275 398.316 255.116 401.604 250.169 401.604C245.223 401.604 241.065 398.316 239.738 393.811H222.926V371.309C223.93 371.899 225.077 372.257 226.332 372.257C229.988 372.257 232.963 369.29 232.963 365.644C232.963 361.997 229.988 359.031 226.332 359.031C225.095 359.031 223.93 359.37 222.926 359.978V350.791H180V436.403H222.926V436.368H265.852V393.83H260.601V393.811Z" fill="#3C80FF"/>
<path d="M272.736 344H229.828V355.528C234.04 356.976 237.069 360.962 237.069 365.644C237.069 370.345 234.04 374.313 229.828 375.761V386.538H246.192C244.848 387.7 243.988 389.398 243.988 391.31C243.988 394.795 246.82 397.602 250.297 397.602C253.792 397.602 256.605 394.778 256.605 391.31C256.605 389.398 255.745 387.682 254.401 386.538H272.736V344Z" fill="#FED400"/>
</svg>
