<svg width="284" height="183" viewBox="0 0 284 183" fill="none" xmlns="http://www.w3.org/2000/svg">
<rect width="284" height="183" fill="#CCCCCC"/>
<g clip-path="url(#clip0)">
<path d="M101.646 92.7234C101.026 94.8685 99.0843 96.4348 96.7737 96.4348C94.4634 96.4348 92.5212 94.8685 91.9018 92.7234H84.0494V82.0065C84.5182 82.2874 85.0539 82.4576 85.6399 82.4576C87.3477 82.4576 88.7373 81.0446 88.7373 79.3081C88.7373 77.5716 87.3477 76.1585 85.6399 76.1585C85.0623 76.1585 84.5182 76.3203 84.0494 76.6097V72.2344H64V113.008H84.0494V112.991H104.099V92.732H101.646V92.7234Z" fill="#3C80FF"/>
<path d="M107.313 69H87.2725V74.4904C89.2399 75.1799 90.6546 77.0782 90.6546 79.3084C90.6546 81.5471 89.2399 83.4368 87.2725 84.1263V89.2592H94.9156C94.2877 89.8125 93.8859 90.6212 93.8859 91.532C93.8859 93.1918 95.2086 94.5284 96.8327 94.5284C98.465 94.5284 99.7793 93.1834 99.7793 91.532C99.7793 90.6212 99.3775 89.804 98.7496 89.2592H107.313V69Z" fill="#3C80FF"/>
<path d="M140.43 96.2563H140.446L140.53 95.8901L140.43 96.2563Z" fill="#39393C"/>
<path d="M121.311 80.5767H118.648V104.956H131.842V102.521H121.311V80.5767Z" fill="#3C80FF"/>
<path d="M142.062 80.5767L135.482 104.956H138.111L139.844 98.6823H139.852L140.447 96.2564H140.43L140.53 95.8902L140.581 95.6859L140.53 95.8902L144.071 82.9005H145.871L149.504 96.2564H149.488L150.099 98.6823L151.832 104.956H154.46L147.88 80.5767H142.062Z" fill="#3C80FF"/>
<path d="M165.301 91.9917L159.349 80.5767H156.335L163.986 94.7071V104.956H166.657V94.7071L174.275 80.5767H171.261L165.301 91.9917Z" fill="#3C80FF"/>
<path d="M188.03 102.555H186.088L180.579 80.5767H177.809L184.079 104.956H190.039L196.309 80.5767H193.538L188.03 102.555Z" fill="#3C80FF"/>
<path d="M217.906 83.326C216.508 81.2575 214.047 80.2275 210.506 80.2275C206.973 80.2275 204.512 81.266 203.131 83.343C201.741 85.42 201.055 88.6036 201.055 92.8852C201.055 97.1755 201.733 100.308 203.097 102.309C204.462 104.309 206.94 105.305 210.531 105.305C214.122 105.305 216.6 104.334 217.965 102.385C219.329 100.436 220.007 97.2861 220.007 92.9449C219.999 88.5951 219.304 85.3945 217.906 83.326ZM215.864 100.623C214.951 102.147 213.176 102.913 210.531 102.913C207.886 102.913 206.102 102.13 205.182 100.572C204.261 99.0143 203.792 96.4435 203.792 92.8768C203.792 89.3101 204.261 86.7054 205.198 85.071C206.136 83.4367 207.902 82.6195 210.497 82.6195C213.093 82.6195 214.867 83.4452 215.813 85.0881C216.759 86.7309 217.236 89.3527 217.236 92.9449C217.236 96.537 216.776 99.0994 215.864 100.623Z" fill="#3C80FF"/>
</g>
<defs>
<clipPath id="clip0">
<rect x="64" y="69" width="156" height="44" fill="white"/>
</clipPath>
</defs>
</svg>
