<svg width="279" height="83" viewBox="0 0 279 83" fill="none" xmlns="http://www.w3.org/2000/svg">
<rect width="279" height="83" fill="#FDD400"/>
<path d="M15.754 53.49V65.352H22.252V66.468H14.494V53.49H15.754ZM34.0632 66.468H32.7132L31.2732 62.436H25.7832L24.3072 66.468H23.0112L27.8352 53.49H29.2572L34.0632 66.468ZM26.1792 61.338H30.8772L29.6172 57.828C29.5332 57.612 29.4552 57.402 29.3832 57.198C29.3112 56.994 29.2332 56.772 29.1492 56.532C29.0652 56.28 28.9752 56.004 28.8792 55.704C28.7832 55.392 28.6692 55.026 28.5372 54.606C28.4172 55.026 28.3092 55.392 28.2132 55.704C28.1172 56.004 28.0272 56.28 27.9432 56.532C27.8592 56.772 27.7812 56.994 27.7092 57.198C27.6372 57.402 27.5592 57.612 27.4752 57.828L26.1792 61.338ZM39.2813 61.158V66.468H38.0213V61.158L33.5573 53.49H34.9793L38.6693 60.006L42.2693 53.49H43.6733L39.2813 61.158ZM44.4214 53.49H45.8074L49.8034 65.172H49.8214L53.8174 53.49H55.1314L50.4874 66.468H49.0474L44.4214 53.49ZM61.4682 53.292C62.2722 53.292 62.9862 53.43 63.6102 53.706C64.2342 53.97 64.7622 54.354 65.1942 54.858C65.6262 55.362 65.9562 55.974 66.1842 56.694C66.4122 57.402 66.5262 58.2 66.5262 59.088V60.87C66.5262 61.758 66.4122 62.562 66.1842 63.282C65.9562 63.99 65.6262 64.596 65.1942 65.1C64.7622 65.604 64.2342 65.988 63.6102 66.252C62.9862 66.528 62.2722 66.666 61.4682 66.666C60.6642 66.666 59.9502 66.528 59.3262 66.252C58.7022 65.988 58.1742 65.604 57.7422 65.1C57.3102 64.596 56.9802 63.99 56.7522 63.282C56.5242 62.562 56.4102 61.758 56.4102 60.87V59.088C56.4102 58.2 56.5182 57.402 56.7342 56.694C56.9622 55.974 57.2922 55.362 57.7242 54.858C58.1562 54.354 58.6842 53.97 59.3082 53.706C59.9442 53.43 60.6642 53.292 61.4682 53.292ZM61.4682 65.532C62.6322 65.532 63.5502 65.13 64.2222 64.326C64.9062 63.51 65.2482 62.322 65.2482 60.762V59.196C65.2482 57.636 64.9062 56.454 64.2222 55.65C63.5502 54.834 62.6322 54.426 61.4682 54.426C60.3042 54.426 59.3802 54.834 58.6962 55.65C58.0242 56.454 57.6882 57.636 57.6882 59.196V60.762C57.6882 62.322 58.0242 63.51 58.6962 64.326C59.3802 65.13 60.3042 65.532 61.4682 65.532ZM78.2871 61.158V66.468H77.0271V61.158L72.5631 53.49H73.9851L77.6751 60.006L81.2751 53.49H82.6791L78.2871 61.158ZM89.3796 60.978V60.816C89.3796 59.796 89.1456 59.016 88.6776 58.476C88.2096 57.936 87.5496 57.666 86.6976 57.666C85.8336 57.666 85.1616 57.954 84.6816 58.53C84.2136 59.094 83.9796 59.856 83.9796 60.816V60.978H89.3796ZM90.3876 65.514C90.0036 65.79 89.5236 66.042 88.9476 66.27C88.3716 66.498 87.6756 66.612 86.8596 66.612C85.5636 66.612 84.5556 66.228 83.8356 65.46C83.1156 64.68 82.7556 63.582 82.7556 62.166V60.96C82.7556 59.58 83.1036 58.506 83.7996 57.738C84.5076 56.97 85.4736 56.586 86.6976 56.586C87.9696 56.586 88.9356 56.982 89.5956 57.774C90.2676 58.554 90.6036 59.628 90.6036 60.996V62.004H83.9796V62.166C83.9796 63.246 84.2376 64.08 84.7536 64.668C85.2696 65.244 85.9776 65.532 86.8776 65.532C87.5256 65.532 88.0956 65.436 88.5876 65.244C89.0796 65.052 89.4996 64.83 89.8476 64.578L90.3876 65.514ZM93.0142 52.86H94.2382V66.468H93.0142V52.86ZM97.1099 52.86H98.3339V66.468H97.1099V52.86ZM104.878 56.586C106.186 56.586 107.2 56.97 107.92 57.738C108.64 58.506 109 59.592 109 60.996V62.202C109 63.606 108.64 64.692 107.92 65.46C107.2 66.228 106.186 66.612 104.878 66.612C103.57 66.612 102.556 66.228 101.836 65.46C101.116 64.692 100.756 63.606 100.756 62.202V60.996C100.756 59.58 101.116 58.494 101.836 57.738C102.556 56.97 103.57 56.586 104.878 56.586ZM104.878 65.532C105.778 65.532 106.48 65.256 106.984 64.704C107.5 64.14 107.758 63.282 107.758 62.13V61.068C107.758 59.916 107.5 59.064 106.984 58.512C106.48 57.948 105.778 57.666 104.878 57.666C103.978 57.666 103.27 57.948 102.754 58.512C102.25 59.064 101.998 59.916 101.998 61.068V62.13C101.998 63.282 102.25 64.14 102.754 64.704C103.27 65.256 103.978 65.532 104.878 65.532ZM112.949 66.468L110.303 56.766H111.545L113.687 65.244L116.063 56.766H117.449L119.879 65.244L121.967 56.766H123.155L120.563 66.468H119.141L116.729 58.134L114.371 66.468H112.949Z" fill="#595959"/>
</svg>
