<svg width="284" height="183" viewBox="0 0 284 183" fill="none" xmlns="http://www.w3.org/2000/svg">
<rect width="284" height="183" fill="black"/>
<g clip-path="url(#clip0)">
<path d="M101.405 92.7232C100.789 94.8684 98.8594 96.4347 96.5636 96.4347C94.2681 96.4347 92.3384 94.8684 91.7229 92.7232H83.9209V82.0064C84.3866 82.2873 84.919 82.4575 85.5012 82.4575C87.198 82.4575 88.5788 81.0445 88.5788 79.308C88.5788 77.5715 87.198 76.1584 85.5012 76.1584C84.9273 76.1584 84.3866 76.3202 83.9209 76.6096V72.2343H64V113.008H83.9209V112.991H103.842V92.7319H101.405V92.7232Z" fill="#3C80FF"/>
<path d="M107.037 69H87.124V74.4904C89.0788 75.1799 90.4844 77.0782 90.4844 79.3084C90.4844 81.5471 89.0788 83.4368 87.124 84.1263V89.2592H94.7182C94.0943 89.8125 93.6951 90.6212 93.6951 91.532C93.6951 93.1918 95.0093 94.5284 96.623 94.5284C98.2448 94.5284 99.5506 93.1834 99.5506 91.532C99.5506 90.6212 99.1515 89.804 98.5276 89.2592H107.037V69Z" fill="#FED400"/>
<path d="M139.939 96.2564H139.956L140.039 95.8903L139.939 96.2564Z" fill="#39393C"/>
<path d="M120.943 80.5768H118.298V104.956H131.407V102.522H120.943V80.5768Z" fill="white"/>
<path d="M141.561 80.5768L135.023 104.956H137.635L139.357 98.6825H139.365L139.956 96.2565H139.939L140.039 95.8903L140.089 95.686L140.039 95.8903L143.557 82.9006H145.346L148.955 96.2565H148.939L149.546 98.6825L151.268 104.956H153.88L147.342 80.5768H141.561Z" fill="white"/>
<path d="M164.651 91.9918L158.738 80.5768H155.743L163.346 94.7072V104.956H165.999V94.7072L173.568 80.5768H170.574L164.651 91.9918Z" fill="white"/>
<path d="M187.235 102.556H185.305L179.832 80.5768H177.079L183.309 104.956H189.231L195.461 80.5768H192.708L187.235 102.556Z" fill="white"/>
<path d="M216.919 83.3262C215.53 81.2577 213.085 80.2277 209.566 80.2277C206.056 80.2277 203.611 81.2662 202.239 83.3432C200.858 85.4202 200.176 88.6038 200.176 92.8854C200.176 97.1757 200.849 100.308 202.205 102.309C203.561 104.309 206.023 105.305 209.591 105.305C213.16 105.305 215.622 104.334 216.977 102.385C218.333 100.436 219.007 97.2863 219.007 92.9451C218.999 88.5953 218.308 85.3947 216.919 83.3262ZM214.89 100.623C213.983 102.147 212.22 102.913 209.591 102.913C206.963 102.913 205.191 102.13 204.276 100.572C203.362 99.0144 202.896 96.4436 202.896 92.877C202.896 89.3103 203.362 86.7056 204.293 85.0712C205.225 83.4368 206.98 82.6197 209.558 82.6197C212.137 82.6197 213.9 83.4454 214.84 85.0882C215.78 86.7311 216.254 89.3529 216.254 92.9451C216.254 96.5372 215.796 99.0996 214.89 100.623Z" fill="white"/>
</g>
<defs>
<clipPath id="clip0">
<rect x="64" y="69" width="155" height="44" fill="white"/>
</clipPath>
</defs>
</svg>
