<svg width="102" height="28" viewBox="0 0 102 28" fill="none" xmlns="http://www.w3.org/2000/svg">
<g clip-path="url(#clip0)">
<path d="M24.429 15.0971C24.027 16.4622 22.7667 17.4589 21.2674 17.4589C19.7681 17.4589 18.5078 16.4622 18.1058 15.0971H13.0103V8.27721C13.3145 8.45596 13.6622 8.5643 14.0425 8.5643C15.1507 8.5643 16.0524 7.6651 16.0524 6.56005C16.0524 5.455 15.1507 4.55579 14.0425 4.55579C13.6676 4.55579 13.3145 4.65871 13.0103 4.84289V2.05859H0V28.0056H13.0103V27.9948H26.0207V15.1025H24.429V15.0971Z" fill="#80858E"/>
<path d="M28.1065 0H15.1016V3.49391C16.3782 3.93268 17.2962 5.14065 17.2962 6.55988C17.2962 7.98452 16.3782 9.18708 15.1016 9.62585V12.8922H20.0612C19.6538 13.2443 19.3931 13.7589 19.3931 14.3386C19.3931 15.3949 20.2514 16.2453 21.3052 16.2453C22.3645 16.2453 23.2174 15.3894 23.2174 14.3386C23.2174 13.7589 22.9567 13.2389 22.5492 12.8922H28.1065V0V0Z" fill="#ADB0B5"/>
<path d="M49.5967 17.3442H49.6075L49.6619 17.1113L49.5967 17.3442Z" fill="#80858E"/>
<path d="M37.1894 7.36719H35.4619V22.8812H44.0232V21.332H37.1894V7.36719Z" fill="#80858E"/>
<path d="M50.6555 7.36719L46.3857 22.8812H48.0915L49.216 18.889H49.2214L49.6071 17.3451H49.5962L49.6614 17.1122L49.694 16.9822L49.6614 17.1122L51.9593 8.846H53.1272L55.4848 17.3451H55.474L55.8705 18.889L56.995 22.8812H58.7008L54.431 7.36719H50.6555Z" fill="#80858E"/>
<path d="M65.736 14.6313L61.8736 7.36719H59.918L64.8831 16.3593V22.8812H66.616V16.3593L71.5594 7.36719H69.6038L65.736 14.6313Z" fill="#80858E"/>
<path d="M80.4844 21.3536H79.2241L75.6497 7.36719H73.8516L77.9204 22.8812H81.7881L85.8569 7.36719H84.0588L80.4844 21.3536Z" fill="#80858E"/>
<path d="M99.8717 9.11629C98.9645 7.79998 97.3674 7.14453 95.0696 7.14453C92.7772 7.14453 91.1801 7.80539 90.2837 9.12712C89.382 10.4488 88.9365 12.4748 88.9365 15.1995C88.9365 17.9296 89.3765 19.923 90.262 21.196C91.1475 22.469 92.7554 23.1027 95.0859 23.1027C97.4163 23.1027 99.0243 22.4852 99.9098 21.2447C100.795 20.0043 101.235 18 101.235 15.2374C101.23 12.4694 100.779 10.4326 99.8717 9.11629ZM98.5463 20.1234C97.9541 21.0931 96.8025 21.5806 95.0859 21.5806C93.3693 21.5806 92.2122 21.0822 91.6146 20.0909C91.0171 19.0996 90.7129 17.4637 90.7129 15.1941C90.7129 12.9244 91.0171 11.2668 91.6255 10.2268C92.2339 9.18671 93.3801 8.66668 95.0642 8.66668C96.7482 8.66668 97.8998 9.19212 98.5137 10.2376C99.1275 11.283 99.4371 12.9515 99.4371 15.2374C99.4371 17.5233 99.1384 19.1538 98.5463 20.1234Z" fill="#80858E"/>
</g>
<defs>
<clipPath id="clip0">
<rect width="101.231" height="28" fill="white"/>
</clipPath>
</defs>
</svg>
