<svg width="131" height="37" viewBox="0 0 131 37" fill="none" xmlns="http://www.w3.org/2000/svg">
<g clip-path="url(#clip0)">
<path opacity="0.6" d="M31.6129 19.9492C31.0927 21.753 29.4618 23.0701 27.5216 23.0701C25.5814 23.0701 23.9505 21.753 23.4303 19.9492H16.8363V10.9372C17.23 11.1734 17.6799 11.3166 18.172 11.3166C19.6061 11.3166 20.773 10.1283 20.773 8.66807C20.773 7.20783 19.6061 6.01959 18.172 6.01959C17.6869 6.01959 17.23 6.15559 16.8363 6.39897V2.71973H0V37.0068H16.8363V36.9925H33.6727V19.9563H31.6129V19.9492Z" fill="white"/>
<path opacity="0.7" d="M36.3723 0H19.543V4.61695C21.195 5.19675 22.383 6.793 22.383 8.66841C22.383 10.551 21.195 12.1401 19.543 12.7199V17.0362H25.9612C25.4339 17.5015 25.0965 18.1815 25.0965 18.9474C25.0965 20.3432 26.2072 21.467 27.571 21.467C28.9418 21.467 30.0455 20.336 30.0455 18.9474C30.0455 18.1815 29.708 17.4943 29.1808 17.0362H36.3723V0V0Z" fill="white"/>
<path d="M64.291 22.4787H64.3051L64.3754 22.1709L64.291 22.4787Z" fill="white"/>
<path d="M48.2355 9.29346H46V29.7941H57.0789V27.7469H48.2355V9.29346Z" fill="white"/>
<path d="M65.6621 9.29346L60.1367 29.7941H62.3441L63.7992 24.5186H63.8063L64.3054 22.4786H64.2913L64.3757 22.1708L64.4179 21.999L64.3757 22.1708L67.3493 11.2476H68.8607L71.9116 22.4786H71.8976L72.4107 24.5186L73.8659 29.7941H76.0732L70.5478 9.29346H65.6621Z" fill="white"/>
<path d="M85.1768 18.8924L80.1787 9.29346H77.6479L84.0732 21.1758V29.7941H86.3157V21.1758L92.7128 9.29346H90.1821L85.1768 18.8924Z" fill="white"/>
<path d="M104.263 27.7756H102.632L98.0065 9.29346H95.6797L100.945 29.7941H105.95L111.216 9.29346H108.889L104.263 27.7756Z" fill="white"/>
<path d="M129.352 11.6055C128.178 9.86613 126.111 9 123.137 9C120.171 9 118.104 9.87328 116.944 11.6198C115.777 13.3664 115.201 16.0435 115.201 19.644C115.201 23.2517 115.77 25.8859 116.916 27.568C118.062 29.2501 120.143 30.0876 123.158 30.0876C126.174 30.0876 128.255 29.2716 129.401 27.6324C130.547 25.9932 131.116 23.3447 131.116 19.6941C131.109 16.0364 130.526 13.3449 129.352 11.6055ZM127.636 26.1507C126.87 27.432 125.38 28.0762 123.158 28.0762C120.937 28.0762 119.44 27.4177 118.666 26.1078C117.893 24.7978 117.499 22.6361 117.499 19.6369C117.499 16.6376 117.893 14.4473 118.68 13.0729C119.468 11.6986 120.951 11.0114 123.13 11.0114C125.31 11.0114 126.8 11.7057 127.594 13.0873C128.389 14.4688 128.789 16.6734 128.789 19.6941C128.789 22.7148 128.403 24.8694 127.636 26.1507Z" fill="white"/>
</g>
<defs>
<clipPath id="clip0">
<rect width="131" height="37" fill="white"/>
</clipPath>
</defs>
</svg>
