<svg width="35" height="35" viewBox="0 0 35 35" fill="none" xmlns="http://www.w3.org/2000/svg">
<g clip-path="url(#clip0)">
<g opacity="0.9">
<path d="M24.8953 33.0078H24.1171C24.1142 32.9937 24.1125 32.9794 24.109 32.9652C23.9833 32.4628 23.6503 31.1305 23.2564 29.5547H10.744C10.3773 31.0218 10.0531 32.3183 9.89123 32.9652C9.88771 32.9793 9.88605 32.9936 9.88313 33.0078H9.10498C8.55487 33.0078 8.10889 33.4538 8.10889 34.0039C8.10889 34.554 8.55487 35 9.10498 35H24.8952C25.4453 35 25.8913 34.554 25.8913 34.0039C25.8913 33.4538 25.4454 33.0078 24.8953 33.0078V33.0078Z" fill="white"/>
<path d="M16.9999 8.83784C17.7803 8.83784 18.4129 8.20519 18.4129 7.42478C18.4129 6.64437 17.7803 6.01172 16.9999 6.01172C16.2194 6.01172 15.5868 6.64437 15.5868 7.42478C15.5868 8.20519 16.2194 8.83784 16.9999 8.83784Z" fill="white"/>
<path d="M23.9727 18.5664H10.0273C8.92885 18.5664 8.03516 19.4601 8.03516 20.5586C8.03516 21.6571 8.92885 22.5508 10.0273 22.5508H23.9727C25.0711 22.5508 25.9648 21.6571 25.9648 20.5586C25.9648 19.4601 25.0711 18.5664 23.9727 18.5664ZM11.0234 21.5546C10.4748 21.5546 10.0273 21.1072 10.0273 20.5585C10.0273 20.0099 10.4748 19.5624 11.0234 19.5624C11.5721 19.5624 12.0195 20.0099 12.0195 20.5585C12.0195 21.1072 11.572 21.5546 11.0234 21.5546ZM15.0078 21.5546C14.4592 21.5546 14.0117 21.1072 14.0117 20.5585C14.0117 20.0099 14.4592 19.5624 15.0078 19.5624C15.5565 19.5624 16.0039 20.0099 16.0039 20.5585C16.0039 21.1072 15.5565 21.5546 15.0078 21.5546ZM18.9922 21.5546C18.4435 21.5546 17.9961 21.1072 17.9961 20.5585C17.9961 20.0099 18.4435 19.5624 18.9922 19.5624C19.5408 19.5624 19.9883 20.0099 19.9883 20.5585C19.9883 21.1072 19.5408 21.5546 18.9922 21.5546ZM22.9766 21.5546C22.4279 21.5546 21.9805 21.1072 21.9805 20.5585C21.9805 20.0099 22.4279 19.5624 22.9766 19.5624C23.5252 19.5624 23.9727 20.0099 23.9727 20.5585C23.9727 21.1072 23.5251 21.5546 22.9766 21.5546Z" fill="white"/>
<path d="M31.9675 1H2.03256C0.911824 1 0 1.91176 0 3.03256V25.5299C0 26.6507 0.911824 27.5625 2.03256 27.5625H31.9675C33.0882 27.5625 34 26.6507 34 25.53V3.03256C34 1.91176 33.0882 1 31.9675 1V1ZM13.5948 7.4248C13.5948 5.54717 15.1224 4.01956 17 4.01956C18.8776 4.01956 20.4052 5.54717 20.4052 7.4248C20.4052 8.27839 20.0888 9.059 19.5681 9.65725C20.7051 10.4641 21.4492 11.7899 21.4492 13.2871C21.4492 13.8373 21.0032 14.2832 20.4531 14.2832C19.903 14.2832 19.457 13.8373 19.457 13.2871C19.457 11.9323 18.3548 10.8301 17 10.8301C15.6452 10.8301 14.543 11.9323 14.543 13.2871C14.543 13.8373 14.097 14.2832 13.5469 14.2832C12.9968 14.2832 12.5508 13.8373 12.5508 13.2871C12.5508 11.79 13.2949 10.4641 14.4319 9.65725C13.9112 9.05893 13.5948 8.27839 13.5948 7.4248V7.4248ZM23.9727 24.543H10.0273C7.83036 24.543 6.04297 22.7556 6.04297 20.5586C6.04297 18.3616 7.83036 16.5743 10.0273 16.5743H23.9727C26.1696 16.5743 27.957 18.3616 27.957 20.5586C27.957 22.7556 26.1696 24.543 23.9727 24.543Z" fill="white"/>
</g>
</g>
<defs>
<clipPath id="clip0">
<rect width="35" height="35" fill="white"/>
</clipPath>
</defs>
</svg>
