<svg width="35" height="35" viewBox="0 0 35 35" fill="none" xmlns="http://www.w3.org/2000/svg">
<g clip-path="url(#clip0)">
<g opacity="0.9">
<path d="M23.6625 5.06877L20.3209 4.58321L18.8265 1.55529C18.6587 1.21529 18.3125 1 17.9333 1C17.5542 1 17.2079 1.21529 17.0401 1.55522L15.5457 4.58321L12.2042 5.06877C11.829 5.12329 11.5173 5.38612 11.4001 5.74671C11.2829 6.10729 11.3807 6.50314 11.6522 6.76777L14.0701 9.12465L13.4993 12.4527C13.4352 12.8263 13.5888 13.204 13.8956 13.4269C14.2023 13.6498 14.609 13.6792 14.9446 13.5027L17.9333 11.9315L20.922 13.5027C21.0678 13.5794 21.227 13.6172 21.3855 13.6172C21.592 13.6172 21.7975 13.553 21.9711 13.4269C22.2778 13.204 22.4315 12.8264 22.3674 12.4527L21.7965 9.12465L24.2145 6.76777C24.486 6.50314 24.5837 6.10729 24.4665 5.74671C24.3493 5.38612 24.0377 5.12329 23.6625 5.06877V5.06877Z" fill="white"/>
<path d="M26.8244 13.5468L26.4426 15.7726C26.3785 16.1463 26.5322 16.524 26.8389 16.7469C27.1456 16.9697 27.5522 16.9992 27.8879 16.8227L29.8868 15.7718L31.8857 16.8226C32.0315 16.8993 32.1906 16.9371 32.3491 16.9371C32.5556 16.9371 32.7611 16.8729 32.9347 16.7468C33.2414 16.5239 33.3951 16.1463 33.331 15.7726L32.9492 13.5467L34.5664 11.9703C34.8379 11.7057 34.9356 11.3099 34.8185 10.9493C34.7013 10.5887 34.3896 10.3259 34.0144 10.2713L31.7795 9.94662L30.78 7.92143C30.6122 7.58143 30.266 7.36621 29.8868 7.36621C29.5076 7.36621 29.1614 7.5815 28.9936 7.92143L27.9941 9.94662L25.7592 10.2713C25.384 10.3259 25.0722 10.5887 24.9552 10.9493C24.838 11.3099 24.9357 11.7057 25.2073 11.9703L26.8244 13.5468Z" fill="white"/>
<path d="M3.24987 15.9964L2.94646 17.7653C2.88238 18.139 3.03597 18.5167 3.3427 18.7395C3.6495 18.9624 4.0561 18.9918 4.39172 18.8154L5.98029 17.9802L7.56885 18.8153C7.71455 18.892 7.87372 18.9297 8.03223 18.9297C8.23876 18.9297 8.44428 18.8656 8.6178 18.7395C8.92453 18.5166 9.07819 18.139 9.01405 17.7652L8.71064 15.9964L9.99579 14.7437C10.2673 14.4791 10.365 14.0832 10.2479 13.7226C10.1307 13.3621 9.81895 13.0992 9.44376 13.0447L7.66773 12.7866L6.87351 11.1773C6.70571 10.8373 6.3594 10.6221 5.98029 10.6221C5.60117 10.6221 5.25487 10.8374 5.08706 11.1773L4.29284 12.7866L2.51681 13.0447C2.14162 13.0992 1.82991 13.3621 1.7127 13.7226C1.59556 14.0832 1.69331 14.4791 1.96478 14.7437L3.24987 15.9964Z" fill="white"/>
<path d="M21.9179 15.7422H13.9492C13.3991 15.7422 12.9531 16.1882 12.9531 16.7383V35H22.914V16.7383C22.914 16.1882 22.4681 15.7422 21.9179 15.7422Z" fill="white"/>
<path d="M33.9648 18H25V34.6015H33.9648C34.5149 34.6015 34.9609 34.1555 34.9609 33.6054V18.9961C34.9609 18.446 34.5149 18 33.9648 18Z" fill="white"/>
<path d="M1 22.0508V34.0039C1 34.554 1.44598 35 1.99609 35H10.9609V21.0547H1.99609C1.44598 21.0547 1 21.5007 1 22.0508Z" fill="white"/>
</g>
</g>
<defs>
<clipPath id="clip0">
<rect width="35" height="35" fill="white"/>
</clipPath>
</defs>
</svg>
