<svg width="35" height="35" viewBox="0 0 35 35" fill="none" xmlns="http://www.w3.org/2000/svg">
<g opacity="0.9">
<path d="M11.7262 1H2.0119C1.45309 1 1 1.45309 1 2.0119V23.5107L12.7381 3.17972V2.0119C12.7381 1.45309 12.285 1 11.7262 1Z" fill="white"/>
<path d="M25.6123 7.81155C25.5428 7.5523 25.3733 7.3313 25.1408 7.19709L16.728 2.33994C16.244 2.0603 15.6251 2.22632 15.3458 2.71028L4.59619 21.3289L24.9272 9.59084L25.5112 8.57934C25.6454 8.34698 25.6818 8.07073 25.6123 7.81155Z" fill="white"/>
<path d="M33.6595 19.2714L28.8023 10.8587C28.5229 10.3747 27.9041 10.2088 27.4201 10.4883L8.80164 21.2377H32.2777L33.2891 20.6538C33.773 20.3743 33.9389 19.7554 33.6595 19.2714Z" fill="white"/>
<path d="M33.9879 23.2617H7.00381C3.76764 23.2617 1.13477 25.8946 1.13477 29.1308C1.13477 32.367 3.76757 34.9998 7.00381 34.9998H33.9879C34.5467 34.9998 34.9998 34.5467 34.9998 33.9879V24.2736C34.9998 23.7148 34.5467 23.2617 33.9879 23.2617ZM6.86887 30.1427C6.30163 30.1427 5.88155 29.679 5.85698 29.1308C5.83247 28.5843 6.33962 28.1189 6.86887 28.1189C7.43612 28.1189 7.8562 28.5825 7.88077 29.1308C7.90528 29.6773 7.3982 30.1427 6.86887 30.1427Z" fill="white"/>
</g>
</svg>
