<svg width="35" height="35" viewBox="0 0 35 35" fill="none" xmlns="http://www.w3.org/2000/svg">
<g clip-path="url(#clip0)">
<g opacity="0.9">
<path d="M6.04688 16.9375C6.85049 16.9375 7.57785 16.6151 8.11533 16.0973L11.0639 17.5715C11.0491 17.6916 11.0273 17.8096 11.0273 17.9336C11.0273 19.5813 12.3679 20.9219 14.0156 20.9219C15.6633 20.9219 17.0039 19.5813 17.0039 17.9336C17.0039 17.4737 16.8908 17.0431 16.7043 16.6535L20.7042 12.6535C21.0939 12.84 21.5245 12.9531 21.9844 12.9531C23.6321 12.9531 24.9727 11.6125 24.9727 9.96484C24.9727 9.6546 24.9117 9.36122 24.8235 9.07977L28.2989 6.47385C28.7731 6.79057 29.3415 6.97656 29.9531 6.97656C31.6008 6.97656 32.9414 5.63599 32.9414 3.98828C32.9414 2.34058 31.6008 1 29.9531 1C28.3054 1 26.9648 2.34058 26.9648 3.98828C26.9648 4.29852 27.0258 4.5919 27.114 4.87335L23.6386 7.47928C23.1644 7.16255 22.596 6.97656 21.9844 6.97656C20.3367 6.97656 18.9961 8.31714 18.9961 9.96484C18.9961 10.4248 19.1092 10.8554 19.2957 11.245L15.2958 15.2449C14.9061 15.0584 14.4755 14.9453 14.0156 14.9453C13.212 14.9453 12.4846 15.2677 11.9472 15.7855L8.99858 14.3113C9.01337 14.1912 9.03516 14.0732 9.03516 13.9492C9.03516 12.3015 7.69458 10.9609 6.04688 10.9609C4.39917 10.9609 3.05859 12.3015 3.05859 13.9492C3.05859 15.5969 4.39917 16.9375 6.04688 16.9375V16.9375Z" fill="white"/>
<path d="M34.0039 33.0078H32.9414V11.957C32.9414 11.4066 32.4958 10.9609 31.9453 10.9609H27.9609C27.4105 10.9609 26.9648 11.4066 26.9648 11.957V33.0078H24.9727V17.9336C24.9727 17.3831 24.527 16.9375 23.9766 16.9375H19.9922C19.4417 16.9375 18.9961 17.3831 18.9961 17.9336V33.0078H17.0039V25.9023C17.0039 25.3519 16.5583 24.9062 16.0078 24.9062H12.0234C11.473 24.9062 11.0273 25.3519 11.0273 25.9023V33.0078H9.03516V21.918C9.03516 21.3675 8.58951 20.9219 8.03906 20.9219H4.05469C3.50424 20.9219 3.05859 21.3675 3.05859 21.918V33.0078H1.99609C1.44565 33.0078 1 33.4535 1 34.0039C1 34.5544 1.44565 35 1.99609 35H34.0039C34.5544 35 35 34.5544 35 34.0039C35 33.4535 34.5544 33.0078 34.0039 33.0078Z" fill="white"/>
</g>
</g>
<defs>
<clipPath id="clip0">
<rect width="35" height="35" fill="white"/>
</clipPath>
</defs>
</svg>
