<svg xmlns="http://www.w3.org/2000/svg" width="103" height="100" fill="none" viewBox="0 0 103 100">
    <mask id="a" width="25" height="19" x="38" y="41" maskUnits="userSpaceOnUse">
        <path fill="#C4C4C4" d="M38.381 41.535h24.072v17.764H38.381z"/>
    </mask>
    <path fill="#444" d="M89.082 89.68H85.44V36.81a4.468 4.468 0 0 0-4.463-4.463h-8.14a4.468 4.468 0 0 0-4.462 4.462v52.87H59.13V60.765a4.468 4.468 0 0 0-4.463-4.463H46.53a4.468 4.468 0 0 0-4.463 4.463V89.68H32.82V74.704a4.468 4.468 0 0 0-4.463-4.463h-8.139a4.468 4.468 0 0 0-4.462 4.463V89.68h-3.838a1.66 1.66 0 0 0 0 3.32h77.164a1.66 1.66 0 1 0 0-3.32zm-59.582 0H19.075V74.704c0-.63.512-1.142 1.142-1.142h8.139c.63 0 1.143.512 1.143 1.142V89.68zm26.31 0H45.386V60.764c0-.63.512-1.143 1.143-1.143h8.138c.63 0 1.143.513 1.143 1.143V89.68zm26.31 0H71.696V36.81c0-.63.513-1.143 1.143-1.143h8.139c.63 0 1.142.512 1.142 1.142v52.87zM85.437 9.746a1.654 1.654 0 0 0-1.742-1.742c-.027-.001-.053-.004-.08-.004H73.57a1.66 1.66 0 1 0 0 3.32h6.201L63.36 27.732l-6.188-6.189a1.66 1.66 0 0 0-2.348 0L22.5 54a1.66 1.66 0 0 0 2.348 2.348l31.15-31.283 6.189 6.189a1.66 1.66 0 0 0 2.348 0L82.12 13.668v5.613a1.66 1.66 0 0 0 3.32 0V9.826c0-.027-.002-.053-.003-.08z"/>
    <path fill="#3C80FF" d="M68 37a5 5 0 0 1 5-5h8a5 5 0 0 1 5 5v53H68V37z"/>
</svg>
