<svg xmlns="http://www.w3.org/2000/svg" width="103" height="100" fill="none" viewBox="0 0 103 100">
    <rect width="53" height="53" x="25.5" y="22.5" stroke="#444" stroke-width="3" rx="3.5"/>
    <circle cx="52" cy="49" r="14" fill="#3C80FF"/>
    <path fill="#444" d="M87 63v3h-9v-3z"/>
    <circle cx="90.5" cy="64.5" r="4" stroke="#444" stroke-width="3" transform="rotate(90 90.5 64.5)"/>
    <path fill="#444" d="M87 48v3h-9v-3z"/>
    <circle cx="90.5" cy="49.5" r="4" stroke="#444" stroke-width="3" transform="rotate(90 90.5 49.5)"/>
    <path fill="#444" d="M87 33v3h-9v-3z"/>
    <circle cx="90.5" cy="34.5" r="4" stroke="#444" stroke-width="3" transform="rotate(90 90.5 34.5)"/>
    <path fill="#444" d="M17 36v-3h9v3z"/>
    <circle cx="13.5" cy="34.5" r="4" stroke="#444" stroke-width="3" transform="rotate(-90 13.5 34.5)"/>
    <path fill="#444" d="M17 51v-3h9v3z"/>
    <circle cx="13.5" cy="49.5" r="4" stroke="#444" stroke-width="3" transform="rotate(-90 13.5 49.5)"/>
    <path fill="#444" d="M17 66v-3h9v3z"/>
    <circle cx="13.5" cy="64.5" r="4" stroke="#444" stroke-width="3" transform="rotate(-90 13.5 64.5)"/>
    <path fill="#444" d="M39 84h-3v-9h3z"/>
    <circle cx="37.5" cy="87.5" r="5.5" fill="#444" transform="rotate(-180 37.5 87.5)"/>
    <path fill="#444" d="M54 84h-3v-9h3z"/>
    <circle cx="52.5" cy="87.5" r="4" stroke="#444" stroke-width="3" transform="rotate(-180 52.5 87.5)"/>
    <path fill="#444" d="M69 84h-3v-9h3z"/>
    <circle cx="67.5" cy="87.5" r="4" stroke="#444" stroke-width="3" transform="rotate(-180 67.5 87.5)"/>
    <path fill="#444" d="M65 14h3v9h-3z"/>
    <circle cx="66.5" cy="10.5" r="5.5" fill="#444"/>
    <path fill="#444" d="M50 14h3v9h-3z"/>
    <circle cx="51.5" cy="10.5" r="4" stroke="#444" stroke-width="3"/>
    <path fill="#444" d="M35 14h3v9h-3z"/>
    <circle cx="36.5" cy="10.5" r="4" stroke="#444" stroke-width="3"/>
</svg>
