<svg xmlns="http://www.w3.org/2000/svg" width="103" height="100" fill="none" viewBox="0 0 103 100">
    <g clip-path="url(#a)">
        <path fill="#444" d="M69.64 8H19.408c-5.392.007-9.761 4.376-9.768 9.768v50.118c.007 5.392 4.376 9.761 9.768 9.768h15.349v-2.79h-15.35a6.985 6.985 0 0 1-6.976-6.978V44.28h8.96a1.501 1.501 0 0 0 1.279-2.07 5.582 5.582 0 1 1 10.22 0 1.447 1.447 0 0 0 1.278 2.07h8.961v8.373a8.372 8.372 0 0 0-4.744 15.931l1.116-2.556a5.582 5.582 0 0 1 2.233-10.7c.769 0 1.53.16 2.233.471a1.395 1.395 0 0 0 1.953-1.278v-10.24h7.096c-.08.46-.12.927-.119 1.395a8.396 8.396 0 0 0 6.698 8.205l.558-2.734a5.6 5.6 0 0 1-4.465-5.471c0-.77.16-1.53.471-2.233a1.395 1.395 0 0 0-1.278-1.953H45.92v-7.096a8.372 8.372 0 1 0 0-16.508v-7.095h23.722a6.985 6.985 0 0 1 6.977 6.977V41.49h-8.961a1.395 1.395 0 0 0-1.279 1.953c.312.703.472 1.464.472 2.233h2.79c.001-.468-.038-.935-.118-1.396h8.491c.77 0 1.396-.624 1.396-1.395V17.768C79.402 12.376 75.032 8.007 69.64 8zM47.315 20.559a5.582 5.582 0 0 1 0 11.163c-.769 0-1.53-.16-2.232-.472a1.395 1.395 0 0 0-1.954 1.278v8.846h-7.086c.07-.423.107-.851.11-1.28v-.072-.044a8.372 8.372 0 1 0-16.745 0V40.094c.002.429.038.857.108 1.28H12.43V17.768a6.985 6.985 0 0 1 6.977-6.977h23.721v8.961a1.395 1.395 0 0 0 1.954 1.278 5.514 5.514 0 0 1 2.232-.471z"/>
        <path fill="#444" d="M90.377 67.977L78.647 59.9 74.14 47.861a1.395 1.395 0 0 0-1.872-.79l-9.07 4.012c-.68.3-1.005 1.08-.74 1.775.151.39.292.687.442.994.149.307.287.594.456 1.048a5.616 5.616 0 0 1-3.264 7.218 5.582 5.582 0 0 1-7.528-5.541 1.395 1.395 0 0 0-1.887-1.379l-9.695 3.652a1.395 1.395 0 0 0-.815 1.794l3.48 9.298c-.46.084-.914.21-1.353.374a8.39 8.39 0 1 0 7.151 15.114l2.495 6.664a1.395 1.395 0 0 0 1.799.816l13.825-5.209a7.493 7.493 0 0 0 4.42 3.946l.882-2.65a4.705 4.705 0 0 1-2.668-2.281l4.207-1.584a9.739 9.739 0 0 0 9.188 6.476v-2.79a7.02 7.02 0 0 1-6.976-6.977c0-.37-.148-.725-.41-.987l-4.858-4.859a2.07 2.07 0 0 1-.191-2.692c.355-.48.904-.778 1.5-.817a2 2 0 0 1 1.602.598l9.742 9.743 1.973-1.973-2.882-2.883a9.734 9.734 0 0 0-.125-6.523l-2.615-6.984 8.433 5.806a4.195 4.195 0 0 1 1.784 3.43v18.024h2.791V73.7a6.99 6.99 0 0 0-2.984-5.723zm-10.021 4.449a6.993 6.993 0 0 1 .407 3.213l-4.53-4.528a4.85 4.85 0 1 0-6.856 6.857l4.413 4.414-19.72 7.428-2.659-7.107a1.395 1.395 0 0 0-2.283-.508 5.581 5.581 0 1 1-5.844-9.264c.444-.165.908-.27 1.38-.313.29-.035.583-.045.875-.03a1.395 1.395 0 0 0 1.38-1.881l-3.645-9.732 6.645-2.502a8.373 8.373 0 0 0 11.164 6.26 8.409 8.409 0 0 0 4.893-10.806 12.449 12.449 0 0 0-.356-.858l6.42-2.843 8.316 22.2z"/>
        <path fill="#fff" d="M75.5 56.5l1.5-9-6.5-1L62 50v6.5l-3.5 1-6-4-13 5.5 2 9.5L35 79l6 15 15-.5 12-6 6.5-2-1-2.5-7.5-7.5V70l9-1 7.5 7.5L77 64l-1.5-7.5z"/>
        <path fill="#3C80FF" d="M83.5 72.798c.45 1.19.523 3.702-.477 5.202l-6-6c-2.5-3-5.26-3.172-7.5-1-2.24 2.173-2.5 5 1.05 8.139l.101.1 3.349 3.261v1c0 1 .3 1.5.3 1.5L54.01 92.743a2 2 0 0 1-2.622-1.273l-1.865-5.97c-.194-.513-.47-1.653-1.008-1.772a1.635 1.635 0 0 0-1.495.423c-2.617 2.46-5.024 2.604-7.497 0s-2.618-6.69 0-9.151c.615-.579-.12-1.311.671-1.615a6.3 6.3 0 0 1 1.612-.363c.34-.042.681-.053 1.022-.034a1.627 1.627 0 0 0 1.713-1.535c.012-.222-.94-1.245-1.018-1.453l-3.315-9.114a2 2 0 0 1 1.203-2.566l8.413-3.029c1.155-.415 2.396.304 2.73 1.485.959 3.381 2.132 4.306 2.969 4.724 3 1.5 6-.5 6-.5s3.392-1.462 1.5-6.5c-.057-.15-.195-.575-.351-1.06-.345-1.068.198-2.308 1.227-2.756l7.7-3.348a2 2 0 0 1 2.668 1.125l9.232 24.337z"/>
        <circle cx="45.5" cy="78.5" r="8.5" fill="#3C80FF"/>
    </g>
    <defs>
        <clipPath id="a">
            <path fill="#fff" d="M9 8h85v85H9z"/>
        </clipPath>
    </defs>
</svg>
