<svg xmlns="http://www.w3.org/2000/svg" width="103" height="100" fill="none" viewBox="0 0 103 100">
    <circle cx="25" cy="33" r="8.5" stroke="#444" stroke-width="3"/>
    <circle cx="76" cy="33" r="8.5" stroke="#444" stroke-width="3"/>
    <path stroke="#444" stroke-width="3" d="M42 68v-4c0-9.389-7.611-17-17-17S8 54.611 8 64v4M93 68v-4c0-9.389-7.611-17-17-17s-17 7.611-17 17v4"/>
    <path fill="#fff" d="M28 55h47v26H28z"/>
    <circle cx="51.5" cy="41.5" r="11" stroke="#444" stroke-width="3"/>
    <path fill="#3C80FF" d="M74 81c0-7.323-.953-13.216-1.93-17.33-.981-4.14-4.812-6.67-9.066-6.67h-2.78c-1.71 0-3.317.821-4.319 2.208l-.518.718c-2.043 2.828-6.332 2.573-8.026-.476A4.764 4.764 0 0 0 43.197 57h-3.374c-4.15 0-7.885 2.469-8.854 6.503C29.979 67.623 29 73.577 29 81h45z"/>
</svg>
