<svg xmlns="http://www.w3.org/2000/svg" width="103" height="100" fill="none" viewBox="0 0 103 100">
    <path fill="#3C80FF" d="M58.186 40.603c.336.224.784.112 1.232-.112.336-.224.56-.672.448-1.12l-1.12-6.611 4.818-4.594c.336-.336.448-.785.336-1.12-.112-.449-.448-.673-.896-.785l-6.611-1.008-2.913-5.94c-.336-.784-1.681-.784-2.017 0l-2.913 5.94-6.611 1.008c-.449.112-.785.336-.897.784-.112.449 0 .897.336 1.12l4.818 4.595-1.12 6.61c-.112.45.112.897.448 1.121.336.224.785.337 1.233.112l5.938-3.137 5.49 3.137z"/>
    <path fill="#444" stroke="#444" stroke-width=".5" d="M88.152 90.424H72.697V78.576c0-.773-.515-1.288-1.288-1.288h-5.924V70.72c0-.773-.515-1.288-1.288-1.288h-7.212V54.88c0-.129.258-.386.386-.386 6.182-1.803 11.72-6.826 15.326-14.038 8.243-4.38 13.266-12.88 13.266-22.28V16.5c0-.773-.516-1.288-1.288-1.288H77.72c0-2.06-.129-4.765-.257-6.053C77.333 8.515 76.818 8 76.175 8H28.135c-.644 0-1.159.515-1.287 1.159-.13 1.288-.258 3.992-.258 6.053h-7.083c-.773 0-1.288.515-1.288 1.288v1.803c0 9.53 5.023 18.03 13.265 22.28 3.735 7.212 9.144 12.106 15.326 14.038.257 0 .386.258.386.387V69.56h-7.212c-.773 0-1.288.515-1.288 1.287v6.569h-5.924c-.773 0-1.288.515-1.288 1.288v11.72H16.288c-.773 0-1.288.515-1.288 1.287 0 .773.515 1.288 1.288 1.288h71.864c.772 0 1.288-.515 1.288-1.288 0-.772-.644-1.288-1.288-1.288zM77.978 17.788h5.666v.515c0 7.212-3.348 13.91-8.886 18.03 2.06-5.409 3.22-11.72 3.22-18.545zm-57.183.515v-.515h5.667c0 6.697 1.16 13.008 3.22 18.417-5.538-4.122-8.887-10.69-8.887-17.902zm12.88 20.735c-2.963-5.924-4.637-13.265-4.637-21.25 0-1.803.129-5.28.257-7.212h45.85c.128 2.06.257 5.538.257 7.212 0 7.985-1.546 15.326-4.508 21.25-3.348 6.697-8.371 11.334-14.038 13.008-1.416.386-2.318 1.545-2.318 2.833v14.553H50.03V54.88c-.129-1.288-1.03-2.447-2.318-2.833-5.667-1.675-10.69-6.31-14.038-13.008zm7.727 33.099h21.507v5.28H41.402v-5.28zM70.25 90.424H34.318v-10.56H70.25v10.56z"/>
</svg>
